<svg xmlns="http://www.w3.org/2000/svg" xmlns:xlink="http://www.w3.org/1999/xlink" width="50" zoomAndPan="magnify" viewBox="0 0 37.5 37.499999" height="50" preserveAspectRatio="xMidYMid meet" version="1.0"><defs><clipPath id="e42ef1ca3d"><path d="M 27.671875 7.015625 L 29.496094 7.015625 L 29.496094 10.667969 L 27.671875 10.667969 Z M 27.671875 7.015625 " clip-rule="nonzero"/></clipPath><clipPath id="d539f248f6"><path d="M 27.671875 7.015625 L 29 7.015625 L 29 10.667969 L 27.671875 10.667969 Z M 27.671875 7.015625 " clip-rule="nonzero"/></clipPath><clipPath id="11a5765241"><path d="M 25.933594 7.015625 L 27.75 7.015625 L 27.75 10.667969 L 25.933594 10.667969 Z M 25.933594 7.015625 " clip-rule="nonzero"/></clipPath><clipPath id="a262ad396c"><path d="M 26 7.015625 L 27.75 7.015625 L 27.75 10.667969 L 26 10.667969 Z M 26 7.015625 " clip-rule="nonzero"/></clipPath><clipPath id="91eaae13ed"><path d="M 28.894531 12.230469 L 30.152344 12.230469 L 30.152344 14.6875 L 28.894531 14.6875 Z M 28.894531 12.230469 " clip-rule="nonzero"/></clipPath><clipPath id="7474a96e1e"><path d="M 28.894531 12.230469 L 30 12.230469 L 30 14.6875 L 28.894531 14.6875 Z M 28.894531 12.230469 " clip-rule="nonzero"/></clipPath><clipPath id="07716cb861"><path d="M 27.714844 12.230469 L 28.953125 12.230469 L 28.953125 14.6875 L 27.714844 14.6875 Z M 27.714844 12.230469 " clip-rule="nonzero"/></clipPath><clipPath id="ed3f85f3da"><path d="M 28 12.230469 L 28.953125 12.230469 L 28.953125 14.6875 L 28 14.6875 Z M 28 12.230469 " clip-rule="nonzero"/></clipPath></defs><path fill="#00bf63" d="M 32.476562 4.003906 C 36 6.28125 37.007812 11.019531 34.730469 14.539062 L 24.21875 30.75 C 21.941406 34.269531 17.203125 35.277344 13.691406 33.003906 C 12.835938 32.449219 12.136719 31.757812 11.59375 30.96875 L 7.773438 30.96875 C 7.113281 30.96875 6.578125 30.433594 6.578125 29.773438 C 6.578125 29.117188 7.113281 28.578125 7.773438 28.578125 L 14.835938 28.578125 C 14.917969 28.578125 14.992188 28.589844 15.0625 28.605469 C 15.722656 28.605469 16.257812 28.066406 16.257812 27.410156 C 16.257812 26.75 15.722656 26.214844 15.0625 26.214844 L 1.195312 26.214844 C 0.542969 26.214844 0 25.675781 0 25.019531 C 0 24.359375 0.535156 23.824219 1.195312 23.824219 L 24.023438 23.824219 C 24.683594 23.824219 25.21875 23.289062 25.21875 22.628906 C 25.21875 21.96875 24.683594 21.433594 24.023438 21.433594 L 12.941406 21.433594 C 12.285156 21.433594 11.746094 20.898438 11.746094 20.238281 C 11.746094 19.582031 12.285156 19.042969 12.941406 19.042969 L 20.40625 19.042969 C 21.0625 19.042969 21.601562 18.507812 21.601562 17.847656 C 21.601562 17.191406 21.0625 16.652344 20.40625 16.652344 L 13.144531 16.652344 C 12.488281 16.652344 11.949219 16.117188 11.949219 15.457031 C 11.949219 14.800781 12.488281 14.261719 13.144531 14.261719 L 16.761719 14.261719 L 21.941406 6.265625 C 24.21875 2.734375 28.957031 1.726562 32.476562 4.003906 Z M 6.058594 19.035156 C 5.398438 19.035156 4.863281 19.570312 4.863281 20.230469 C 4.863281 20.890625 5.398438 21.425781 6.058594 21.425781 L 8.804688 21.425781 C 9.453125 21.425781 10 20.882812 10 20.230469 C 10 19.582031 9.464844 19.035156 8.804688 19.035156 Z M 20.121094 13.71875 C 21.949219 13.433594 23.835938 13.816406 25.421875 14.847656 C 27.015625 15.875 28.136719 17.441406 28.625 19.230469 L 32.582031 13.148438 C 34.097656 10.816406 33.421875 7.660156 31.078125 6.140625 C 28.746094 4.628906 25.59375 5.304688 24.082031 7.636719 Z M 20.121094 13.71875 " fill-opacity="1" fill-rule="evenodd"/><g clip-path="url(#e42ef1ca3d)"><path fill="#00bf63" d="M 27.671875 8.144531 L 27.671875 7.015625 C 28.683594 7.015625 29.507812 7.839844 29.507812 8.851562 C 29.507812 9.863281 28.683594 10.683594 27.671875 10.683594 L 27.671875 9.558594 C 28.0625 9.558594 28.378906 9.242188 28.378906 8.851562 C 28.378906 8.460938 28.0625 8.144531 27.671875 8.144531 Z M 27.671875 8.144531 " fill-opacity="1" fill-rule="evenodd"/></g><g clip-path="url(#d539f248f6)"><path fill="#00bf63" d="M 27.671875 8.144531 L 27.671875 7.539062 C 28.394531 7.539062 28.984375 8.128906 28.984375 8.851562 C 28.984375 9.574219 28.394531 10.160156 27.671875 10.160156 L 27.671875 9.558594 C 28.0625 9.558594 28.378906 9.242188 28.378906 8.851562 C 28.378906 8.460938 28.0625 8.144531 27.671875 8.144531 Z M 27.671875 8.144531 " fill-opacity="1" fill-rule="evenodd"/></g><g clip-path="url(#11a5765241)"><path fill="#00bf63" d="M 27.761719 8.144531 L 27.761719 7.015625 C 26.75 7.015625 25.925781 7.839844 25.925781 8.851562 C 25.925781 9.863281 26.75 10.683594 27.761719 10.683594 L 27.761719 9.558594 C 27.371094 9.558594 27.054688 9.242188 27.054688 8.851562 C 27.054688 8.460938 27.371094 8.144531 27.761719 8.144531 Z M 27.761719 8.144531 " fill-opacity="1" fill-rule="evenodd"/></g><g clip-path="url(#a262ad396c)"><path fill="#00bf63" d="M 27.761719 8.144531 L 27.761719 7.539062 C 27.035156 7.539062 26.449219 8.128906 26.449219 8.851562 C 26.449219 9.574219 27.035156 10.160156 27.761719 10.160156 L 27.761719 9.558594 C 27.371094 9.558594 27.054688 9.242188 27.054688 8.851562 C 27.054688 8.460938 27.371094 8.144531 27.761719 8.144531 Z M 27.761719 8.144531 " fill-opacity="1" fill-rule="evenodd"/></g><g clip-path="url(#91eaae13ed)"><path fill="#00bf63" d="M 28.894531 12.992188 L 28.894531 12.234375 C 29.578125 12.234375 30.132812 12.789062 30.132812 13.46875 C 30.132812 14.152344 29.578125 14.707031 28.894531 14.707031 L 28.894531 13.949219 C 29.160156 13.949219 29.371094 13.734375 29.371094 13.46875 C 29.371094 13.207031 29.160156 12.992188 28.894531 12.992188 Z M 28.894531 12.992188 " fill-opacity="1" fill-rule="evenodd"/></g><g clip-path="url(#7474a96e1e)"><path fill="#00bf63" d="M 28.894531 12.992188 L 28.894531 12.585938 C 29.382812 12.585938 29.777344 12.980469 29.777344 13.46875 C 29.777344 13.957031 29.382812 14.355469 28.894531 14.355469 L 28.894531 13.949219 C 29.160156 13.949219 29.371094 13.734375 29.371094 13.46875 C 29.371094 13.207031 29.160156 12.992188 28.894531 12.992188 Z M 28.894531 12.992188 " fill-opacity="1" fill-rule="evenodd"/></g><g clip-path="url(#07716cb861)"><path fill="#00bf63" d="M 28.953125 12.992188 L 28.953125 12.234375 C 28.269531 12.234375 27.714844 12.789062 27.714844 13.46875 C 27.714844 14.152344 28.269531 14.707031 28.953125 14.707031 L 28.953125 13.949219 C 28.691406 13.949219 28.476562 13.734375 28.476562 13.46875 C 28.476562 13.207031 28.691406 12.992188 28.953125 12.992188 Z M 28.953125 12.992188 " fill-opacity="1" fill-rule="evenodd"/></g><g clip-path="url(#ed3f85f3da)"><path fill="#00bf63" d="M 28.953125 12.992188 L 28.953125 12.585938 C 28.464844 12.585938 28.070312 12.980469 28.070312 13.46875 C 28.070312 13.957031 28.464844 14.355469 28.953125 14.355469 L 28.953125 13.949219 C 28.691406 13.949219 28.476562 13.734375 28.476562 13.46875 C 28.476562 13.207031 28.691406 12.992188 28.953125 12.992188 Z M 28.953125 12.992188 " fill-opacity="1" fill-rule="evenodd"/></g></svg>