<svg xmlns="http://www.w3.org/2000/svg" xmlns:xlink="http://www.w3.org/1999/xlink" width="90" zoomAndPan="magnify" viewBox="0 0 67.5 30.000001" height="40" preserveAspectRatio="xMidYMid meet" version="1.0"><defs><g/><clipPath id="776831fb12"><path d="M 0.847656 2 L 28.921875 2 L 28.921875 27 L 0.847656 27 Z M 0.847656 2 " clip-rule="nonzero"/></clipPath><clipPath id="816eb81c4a"><path d="M 21.839844 5.800781 L 23.222656 5.800781 L 23.222656 8.570312 L 21.839844 8.570312 Z M 21.839844 5.800781 " clip-rule="nonzero"/></clipPath><clipPath id="11ed648c29"><path d="M 21.839844 6 L 23 6 L 23 8.570312 L 21.839844 8.570312 Z M 21.839844 6 " clip-rule="nonzero"/></clipPath><clipPath id="5da61ead2a"><path d="M 20.519531 5.800781 L 21.898438 5.800781 L 21.898438 8.570312 L 20.519531 8.570312 Z M 20.519531 5.800781 " clip-rule="nonzero"/></clipPath><clipPath id="a5f9fe760f"><path d="M 20.519531 6 L 21.898438 6 L 21.898438 8.570312 L 20.519531 8.570312 Z M 20.519531 6 " clip-rule="nonzero"/></clipPath><clipPath id="953fdc91ae"><path d="M 22.765625 9.757812 L 23.71875 9.757812 L 23.71875 11.621094 L 22.765625 11.621094 Z M 22.765625 9.757812 " clip-rule="nonzero"/></clipPath><clipPath id="86059c330d"><path d="M 22.765625 10 L 23.71875 10 L 23.71875 11.621094 L 22.765625 11.621094 Z M 22.765625 10 " clip-rule="nonzero"/></clipPath><clipPath id="1fa21df92f"><path d="M 21.871094 9.757812 L 22.808594 9.757812 L 22.808594 11.621094 L 21.871094 11.621094 Z M 21.871094 9.757812 " clip-rule="nonzero"/></clipPath><clipPath id="19b228d13f"><path d="M 22 10 L 22.808594 10 L 22.808594 11.621094 L 22 11.621094 Z M 22 10 " clip-rule="nonzero"/></clipPath></defs><g clip-path="url(#776831fb12)"><path fill="#005f5f" d="M 25.484375 3.515625 C 28.152344 5.242188 28.917969 8.839844 27.191406 11.507812 L 19.21875 23.804688 C 17.492188 26.476562 13.894531 27.242188 11.230469 25.515625 C 10.585938 25.09375 10.054688 24.570312 9.640625 23.972656 L 6.742188 23.972656 C 6.242188 23.972656 5.835938 23.566406 5.835938 23.066406 C 5.835938 22.566406 6.242188 22.160156 6.742188 22.160156 L 12.101562 22.160156 C 12.164062 22.160156 12.21875 22.164062 12.273438 22.179688 C 12.773438 22.179688 13.179688 21.769531 13.179688 21.273438 C 13.179688 20.773438 12.773438 20.363281 12.273438 20.363281 L 1.753906 20.363281 C 1.261719 20.363281 0.847656 19.957031 0.847656 19.457031 C 0.847656 18.960938 1.253906 18.550781 1.753906 18.550781 L 19.070312 18.550781 C 19.570312 18.550781 19.976562 18.144531 19.976562 17.644531 C 19.976562 17.144531 19.570312 16.738281 19.070312 16.738281 L 10.664062 16.738281 C 10.164062 16.738281 9.757812 16.332031 9.757812 15.832031 C 9.757812 15.332031 10.164062 14.925781 10.664062 14.925781 L 16.324219 14.925781 C 16.824219 14.925781 17.230469 14.519531 17.230469 14.019531 C 17.230469 13.519531 16.824219 13.113281 16.324219 13.113281 L 10.820312 13.113281 C 10.320312 13.113281 9.914062 12.707031 9.914062 12.207031 C 9.914062 11.707031 10.320312 11.300781 10.820312 11.300781 L 13.5625 11.300781 L 17.492188 5.230469 C 19.21875 2.554688 22.8125 1.789062 25.484375 3.515625 Z M 5.441406 14.917969 C 4.941406 14.917969 4.535156 15.328125 4.535156 15.828125 C 4.535156 16.324219 4.941406 16.734375 5.441406 16.734375 L 7.527344 16.734375 C 8.019531 16.734375 8.433594 16.320312 8.433594 15.828125 C 8.433594 15.332031 8.023438 14.917969 7.527344 14.917969 Z M 16.109375 10.886719 C 17.496094 10.671875 18.929688 10.960938 20.128906 11.742188 C 21.339844 12.519531 22.191406 13.710938 22.558594 15.066406 L 25.5625 10.453125 C 26.710938 8.683594 26.199219 6.292969 24.421875 5.140625 C 22.652344 3.992188 20.261719 4.503906 19.113281 6.273438 Z M 16.109375 10.886719 " fill-opacity="1" fill-rule="evenodd"/></g><g clip-path="url(#816eb81c4a)"><path fill="#005f5f" d="M 21.839844 6.65625 L 21.839844 5.800781 C 22.605469 5.800781 23.230469 6.425781 23.230469 7.195312 C 23.230469 7.960938 22.605469 8.585938 21.839844 8.585938 L 21.839844 7.730469 C 22.132812 7.730469 22.375 7.488281 22.375 7.195312 C 22.375 6.898438 22.132812 6.65625 21.839844 6.65625 Z M 21.839844 6.65625 " fill-opacity="1" fill-rule="evenodd"/></g><g clip-path="url(#11ed648c29)"><path fill="#005f5f" d="M 21.839844 6.65625 L 21.839844 6.199219 C 22.386719 6.199219 22.832031 6.644531 22.832031 7.195312 C 22.832031 7.742188 22.386719 8.1875 21.839844 8.1875 L 21.839844 7.730469 C 22.132812 7.730469 22.375 7.488281 22.375 7.195312 C 22.375 6.898438 22.132812 6.65625 21.839844 6.65625 Z M 21.839844 6.65625 " fill-opacity="1" fill-rule="evenodd"/></g><g clip-path="url(#5da61ead2a)"><path fill="#005f5f" d="M 21.90625 6.65625 L 21.90625 5.800781 C 21.136719 5.800781 20.511719 6.425781 20.511719 7.195312 C 20.511719 7.960938 21.136719 8.585938 21.90625 8.585938 L 21.90625 7.730469 C 21.609375 7.730469 21.367188 7.488281 21.367188 7.195312 C 21.367188 6.898438 21.609375 6.65625 21.90625 6.65625 Z M 21.90625 6.65625 " fill-opacity="1" fill-rule="evenodd"/></g><g clip-path="url(#a5f9fe760f)"><path fill="#005f5f" d="M 21.90625 6.65625 L 21.90625 6.199219 C 21.355469 6.199219 20.910156 6.644531 20.910156 7.195312 C 20.910156 7.742188 21.355469 8.1875 21.90625 8.1875 L 21.90625 7.730469 C 21.609375 7.730469 21.367188 7.488281 21.367188 7.195312 C 21.367188 6.898438 21.609375 6.65625 21.90625 6.65625 Z M 21.90625 6.65625 " fill-opacity="1" fill-rule="evenodd"/></g><g clip-path="url(#953fdc91ae)"><path fill="#005f5f" d="M 22.765625 10.335938 L 22.765625 9.757812 C 23.285156 9.757812 23.703125 10.179688 23.703125 10.699219 C 23.703125 11.214844 23.285156 11.636719 22.765625 11.636719 L 22.765625 11.058594 C 22.964844 11.058594 23.128906 10.898438 23.128906 10.699219 C 23.128906 10.5 22.964844 10.335938 22.765625 10.335938 Z M 22.765625 10.335938 " fill-opacity="1" fill-rule="evenodd"/></g><g clip-path="url(#86059c330d)"><path fill="#005f5f" d="M 22.765625 10.335938 L 22.765625 10.027344 C 23.136719 10.027344 23.4375 10.328125 23.4375 10.699219 C 23.4375 11.070312 23.136719 11.367188 22.765625 11.367188 L 22.765625 11.058594 C 22.964844 11.058594 23.128906 10.898438 23.128906 10.699219 C 23.128906 10.5 22.964844 10.335938 22.765625 10.335938 Z M 22.765625 10.335938 " fill-opacity="1" fill-rule="evenodd"/></g><g clip-path="url(#1fa21df92f)"><path fill="#005f5f" d="M 22.808594 10.335938 L 22.808594 9.757812 C 22.292969 9.757812 21.871094 10.179688 21.871094 10.699219 C 21.871094 11.214844 22.292969 11.636719 22.808594 11.636719 L 22.808594 11.058594 C 22.609375 11.058594 22.449219 10.898438 22.449219 10.699219 C 22.449219 10.5 22.609375 10.335938 22.808594 10.335938 Z M 22.808594 10.335938 " fill-opacity="1" fill-rule="evenodd"/></g><g clip-path="url(#19b228d13f)"><path fill="#005f5f" d="M 22.808594 10.335938 L 22.808594 10.027344 C 22.441406 10.027344 22.140625 10.328125 22.140625 10.699219 C 22.140625 11.070312 22.441406 11.367188 22.808594 11.367188 L 22.808594 11.058594 C 22.609375 11.058594 22.449219 10.898438 22.449219 10.699219 C 22.449219 10.5 22.609375 10.335938 22.808594 10.335938 Z M 22.808594 10.335938 " fill-opacity="1" fill-rule="evenodd"/></g><g fill="#005f5f" fill-opacity="1"><g transform="translate(21.802448, 24.43975)"><g><path d="M 1.703125 0 L 0.515625 0 L 0.515625 -4.890625 L 2.71875 -4.890625 C 3.300781 -4.890625 3.753906 -4.753906 4.078125 -4.484375 C 4.398438 -4.222656 4.5625 -3.828125 4.5625 -3.296875 C 4.5625 -2.753906 4.394531 -2.335938 4.0625 -2.046875 C 3.738281 -1.753906 3.289062 -1.609375 2.71875 -1.609375 L 1.703125 -1.609375 Z M 2.578125 -2.515625 C 2.816406 -2.515625 2.992188 -2.578125 3.109375 -2.703125 C 3.222656 -2.828125 3.28125 -3 3.28125 -3.21875 C 3.28125 -3.71875 3.046875 -3.96875 2.578125 -3.96875 L 1.703125 -3.96875 L 1.703125 -2.515625 Z M 2.578125 -2.515625 "/></g></g></g><g fill="#005f5f" fill-opacity="1"><g transform="translate(26.668399, 24.43975)"><g><path d="M 2.625 -3.8125 C 3.0625 -3.8125 3.398438 -3.703125 3.640625 -3.484375 C 3.878906 -3.273438 4 -2.925781 4 -2.4375 L 4 0 L 2.90625 0 L 2.90625 -2.203125 C 2.90625 -2.671875 2.671875 -2.90625 2.203125 -2.90625 C 2.085938 -2.90625 1.96875 -2.890625 1.84375 -2.859375 C 1.726562 -2.828125 1.640625 -2.785156 1.578125 -2.734375 L 1.5625 0 L 0.484375 0 L 0.484375 -5.171875 L 1.578125 -5.171875 L 1.578125 -3.546875 C 1.921875 -3.722656 2.269531 -3.8125 2.625 -3.8125 Z M 2.625 -3.8125 "/></g></g></g><g fill="#005f5f" fill-opacity="1"><g transform="translate(31.145952, 24.43975)"><g><path d="M 2.109375 -3.8125 C 2.515625 -3.8125 2.878906 -3.71875 3.203125 -3.53125 C 3.535156 -3.34375 3.703125 -3.003906 3.703125 -2.515625 L 3.703125 -0.765625 C 3.691406 -0.460938 3.535156 -0.238281 3.234375 -0.09375 C 2.929688 0.0390625 2.488281 0.109375 1.90625 0.109375 C 0.820312 0.109375 0.28125 -0.3125 0.28125 -1.15625 C 0.28125 -1.507812 0.390625 -1.785156 0.609375 -1.984375 C 0.835938 -2.191406 1.171875 -2.296875 1.609375 -2.296875 C 1.796875 -2.296875 1.976562 -2.269531 2.15625 -2.21875 C 2.332031 -2.175781 2.488281 -2.117188 2.625 -2.046875 L 2.625 -2.28125 C 2.625 -2.707031 2.347656 -2.921875 1.796875 -2.921875 C 1.585938 -2.921875 1.375 -2.878906 1.15625 -2.796875 C 0.9375 -2.722656 0.757812 -2.632812 0.625 -2.53125 L 0.625 -3.5 C 0.757812 -3.582031 0.960938 -3.65625 1.234375 -3.71875 C 1.503906 -3.78125 1.796875 -3.8125 2.109375 -3.8125 Z M 1.953125 -0.65625 C 2.203125 -0.65625 2.375 -0.671875 2.46875 -0.703125 C 2.570312 -0.742188 2.625 -0.816406 2.625 -0.921875 L 2.625 -1.484375 C 2.445312 -1.546875 2.257812 -1.578125 2.0625 -1.578125 C 1.820312 -1.578125 1.644531 -1.539062 1.53125 -1.46875 C 1.425781 -1.394531 1.375 -1.285156 1.375 -1.140625 C 1.375 -0.992188 1.429688 -0.875 1.546875 -0.78125 C 1.660156 -0.695312 1.796875 -0.65625 1.953125 -0.65625 Z M 1.953125 -0.65625 "/></g></g></g><g fill="#005f5f" fill-opacity="1"><g transform="translate(35.337705, 24.43975)"><g><path d="M 0.484375 -3.3125 C 0.554688 -3.382812 0.679688 -3.457031 0.859375 -3.53125 C 1.046875 -3.613281 1.253906 -3.679688 1.484375 -3.734375 C 1.710938 -3.785156 1.929688 -3.8125 2.140625 -3.8125 C 2.546875 -3.8125 2.828125 -3.753906 2.984375 -3.640625 L 2.984375 -2.84375 C 2.785156 -2.882812 2.503906 -2.90625 2.140625 -2.90625 C 1.910156 -2.90625 1.722656 -2.890625 1.578125 -2.859375 L 1.578125 0 L 0.484375 0 Z M 0.484375 -3.3125 "/></g></g></g><g fill="#005f5f" fill-opacity="1"><g transform="translate(38.474191, 24.43975)"><g><path d="M 4.703125 -3.8125 C 5.222656 -3.8125 5.609375 -3.707031 5.859375 -3.5 C 6.109375 -3.300781 6.234375 -2.960938 6.234375 -2.484375 L 6.234375 0 L 5.140625 0 L 5.140625 -2.265625 C 5.140625 -2.691406 4.898438 -2.90625 4.421875 -2.90625 C 4.222656 -2.90625 4.050781 -2.859375 3.90625 -2.765625 C 3.914062 -2.648438 3.921875 -2.554688 3.921875 -2.484375 L 3.921875 0 L 2.84375 0 L 2.84375 -2.265625 C 2.84375 -2.691406 2.601562 -2.90625 2.125 -2.90625 C 1.925781 -2.90625 1.742188 -2.863281 1.578125 -2.78125 L 1.578125 0 L 0.484375 0 L 0.484375 -3.390625 C 0.671875 -3.492188 0.957031 -3.585938 1.34375 -3.671875 C 1.738281 -3.765625 2.09375 -3.8125 2.40625 -3.8125 C 2.894531 -3.8125 3.257812 -3.722656 3.5 -3.546875 C 3.6875 -3.628906 3.882812 -3.691406 4.09375 -3.734375 C 4.3125 -3.785156 4.515625 -3.8125 4.703125 -3.8125 Z M 4.703125 -3.8125 "/></g></g></g><g fill="#005f5f" fill-opacity="1"><g transform="translate(45.186858, 24.43975)"><g><path d="M 2.109375 -3.8125 C 2.515625 -3.8125 2.878906 -3.71875 3.203125 -3.53125 C 3.535156 -3.34375 3.703125 -3.003906 3.703125 -2.515625 L 3.703125 -0.765625 C 3.691406 -0.460938 3.535156 -0.238281 3.234375 -0.09375 C 2.929688 0.0390625 2.488281 0.109375 1.90625 0.109375 C 0.820312 0.109375 0.28125 -0.3125 0.28125 -1.15625 C 0.28125 -1.507812 0.390625 -1.785156 0.609375 -1.984375 C 0.835938 -2.191406 1.171875 -2.296875 1.609375 -2.296875 C 1.796875 -2.296875 1.976562 -2.269531 2.15625 -2.21875 C 2.332031 -2.175781 2.488281 -2.117188 2.625 -2.046875 L 2.625 -2.28125 C 2.625 -2.707031 2.347656 -2.921875 1.796875 -2.921875 C 1.585938 -2.921875 1.375 -2.878906 1.15625 -2.796875 C 0.9375 -2.722656 0.757812 -2.632812 0.625 -2.53125 L 0.625 -3.5 C 0.757812 -3.582031 0.960938 -3.65625 1.234375 -3.71875 C 1.503906 -3.78125 1.796875 -3.8125 2.109375 -3.8125 Z M 1.953125 -0.65625 C 2.203125 -0.65625 2.375 -0.671875 2.46875 -0.703125 C 2.570312 -0.742188 2.625 -0.816406 2.625 -0.921875 L 2.625 -1.484375 C 2.445312 -1.546875 2.257812 -1.578125 2.0625 -1.578125 C 1.820312 -1.578125 1.644531 -1.539062 1.53125 -1.46875 C 1.425781 -1.394531 1.375 -1.285156 1.375 -1.140625 C 1.375 -0.992188 1.429688 -0.875 1.546875 -0.78125 C 1.660156 -0.695312 1.796875 -0.65625 1.953125 -0.65625 Z M 1.953125 -0.65625 "/></g></g></g><g fill="#005f5f" fill-opacity="1"><g transform="translate(49.378612, 24.43975)"><g><path d="M 7.21875 -4.890625 L 5.84375 0 L 4.671875 0 L 3.703125 -3.171875 L 2.71875 0 L 1.546875 0 L 0.1875 -4.890625 L 1.484375 -4.890625 L 2.25 -1.46875 L 3.234375 -4.890625 L 4.15625 -4.890625 L 5.15625 -1.46875 L 5.921875 -4.890625 Z M 7.21875 -4.890625 "/></g></g></g><g fill="#005f5f" fill-opacity="1"><g transform="translate(56.780135, 24.43975)"><g><path d="M 0.484375 -5.0625 L 1.609375 -5.0625 L 1.609375 -4.21875 L 0.484375 -4.21875 Z M 0.5 -3.65625 L 1.59375 -3.65625 L 1.609375 0 L 0.5 0 Z M 0.5 -3.65625 "/></g></g></g><g fill="#005f5f" fill-opacity="1"><g transform="translate(58.876012, 24.43975)"><g><path d="M 2.734375 0 L 1.578125 -1.53125 L 1.5625 0 L 0.484375 0 L 0.484375 -5.109375 L 1.578125 -5.109375 L 1.578125 -2.34375 L 2.703125 -3.703125 L 4.015625 -3.703125 L 2.484375 -2.09375 L 4.125 0 Z M 2.734375 0 "/></g></g></g><g fill="#005f5f" fill-opacity="1"><g transform="translate(63.185017, 24.43975)"><g><path d="M 0.484375 -5.0625 L 1.609375 -5.0625 L 1.609375 -4.21875 L 0.484375 -4.21875 Z M 0.5 -3.65625 L 1.59375 -3.65625 L 1.609375 0 L 0.5 0 Z M 0.5 -3.65625 "/></g></g></g></svg>