<svg xmlns="http://www.w3.org/2000/svg" xmlns:xlink="http://www.w3.org/1999/xlink" width="500" zoomAndPan="magnify" viewBox="0 0 375 374.999991" height="500" preserveAspectRatio="xMidYMid meet" version="1.0"><defs><g/><clipPath id="1db2b4a843"><path d="M 112.164062 114.210938 L 119.5625 114.210938 L 119.5625 129.007812 L 112.164062 129.007812 Z M 112.164062 114.210938 " clip-rule="nonzero"/></clipPath><clipPath id="1d54ea74f1"><path d="M 112.164062 114.210938 L 119.5625 114.210938 L 119.5625 129 L 112.164062 129 Z M 112.164062 114.210938 " clip-rule="nonzero"/></clipPath><clipPath id="2651278643"><path d="M 112.164062 114.5625 C 116.074219 114.5625 119.246094 117.738281 119.246094 121.644531 C 119.246094 125.554688 116.074219 128.726562 112.164062 128.726562 L 112.164062 128.472656 C 115.933594 128.472656 118.992188 125.414062 118.992188 121.644531 C 118.992188 117.878906 115.933594 114.816406 112.164062 114.816406 Z M 112.164062 114.5625 " clip-rule="evenodd"/></clipPath><linearGradient x1="-0.00000155528" gradientTransform="matrix(0, 14.517033, -14.517033, 0, 112.165369, 114.563997)" y1="0" x2="0.975704" gradientUnits="userSpaceOnUse" y2="0" id="aca8cab1a5"><stop stop-opacity="1" stop-color="rgb(59.599304%, 39.99939%, 15.299988%)" offset="0"/><stop stop-opacity="1" stop-color="rgb(59.770203%, 40.136719%, 15.306091%)" offset="0.015625"/><stop stop-opacity="1" stop-color="rgb(60.112%, 40.411377%, 15.316772%)" offset="0.03125"/><stop stop-opacity="1" stop-color="rgb(60.452271%, 40.684509%, 15.328979%)" offset="0.046875"/><stop stop-opacity="1" stop-color="rgb(60.794067%, 40.959167%, 15.341187%)" offset="0.0625"/><stop stop-opacity="1" stop-color="rgb(61.135864%, 41.233826%, 15.353394%)" offset="0.078125"/><stop stop-opacity="1" stop-color="rgb(61.477661%, 41.508484%, 15.365601%)" offset="0.09375"/><stop stop-opacity="1" stop-color="rgb(61.819458%, 41.783142%, 15.377808%)" offset="0.109375"/><stop stop-opacity="1" stop-color="rgb(62.159729%, 42.0578%, 15.390015%)" offset="0.125"/><stop stop-opacity="1" stop-color="rgb(62.501526%, 42.330933%, 15.402222%)" offset="0.140625"/><stop stop-opacity="1" stop-color="rgb(62.843323%, 42.605591%, 15.414429%)" offset="0.15625"/><stop stop-opacity="1" stop-color="rgb(63.18512%, 42.880249%, 15.426636%)" offset="0.171875"/><stop stop-opacity="1" stop-color="rgb(63.526917%, 43.154907%, 15.438843%)" offset="0.1875"/><stop stop-opacity="1" stop-color="rgb(63.867188%, 43.429565%, 15.45105%)" offset="0.203125"/><stop stop-opacity="1" stop-color="rgb(64.208984%, 43.704224%, 15.463257%)" offset="0.21875"/><stop stop-opacity="1" stop-color="rgb(64.550781%, 43.978882%, 15.475464%)" offset="0.234375"/><stop stop-opacity="1" stop-color="rgb(64.892578%, 44.252014%, 15.487671%)" offset="0.25"/><stop stop-opacity="1" stop-color="rgb(65.234375%, 44.526672%, 15.499878%)" offset="0.265625"/><stop stop-opacity="1" stop-color="rgb(65.574646%, 44.801331%, 15.512085%)" offset="0.28125"/><stop stop-opacity="1" stop-color="rgb(65.916443%, 45.075989%, 15.524292%)" offset="0.296875"/><stop stop-opacity="1" stop-color="rgb(66.25824%, 45.350647%, 15.536499%)" offset="0.3125"/><stop stop-opacity="1" stop-color="rgb(66.600037%, 45.625305%, 15.548706%)" offset="0.328125"/><stop stop-opacity="1" stop-color="rgb(66.941833%, 45.898438%, 15.560913%)" offset="0.34375"/><stop stop-opacity="1" stop-color="rgb(67.282104%, 46.173096%, 15.57312%)" offset="0.359375"/><stop stop-opacity="1" stop-color="rgb(67.623901%, 46.447754%, 15.585327%)" offset="0.375"/><stop stop-opacity="1" stop-color="rgb(67.965698%, 46.722412%, 15.597534%)" offset="0.390625"/><stop stop-opacity="1" stop-color="rgb(68.307495%, 46.99707%, 15.609741%)" offset="0.40625"/><stop stop-opacity="1" stop-color="rgb(68.649292%, 47.271729%, 15.621948%)" offset="0.421875"/><stop stop-opacity="1" stop-color="rgb(68.989563%, 47.544861%, 15.634155%)" offset="0.4375"/><stop stop-opacity="1" stop-color="rgb(69.33136%, 47.819519%, 15.646362%)" offset="0.453125"/><stop stop-opacity="1" stop-color="rgb(69.673157%, 48.094177%, 15.658569%)" offset="0.46875"/><stop stop-opacity="1" stop-color="rgb(70.014954%, 48.368835%, 15.670776%)" offset="0.484375"/><stop stop-opacity="1" stop-color="rgb(70.35675%, 48.643494%, 15.682983%)" offset="0.5"/><stop stop-opacity="1" stop-color="rgb(70.697021%, 48.918152%, 15.69519%)" offset="0.515625"/><stop stop-opacity="1" stop-color="rgb(71.038818%, 49.19281%, 15.707397%)" offset="0.53125"/><stop stop-opacity="1" stop-color="rgb(71.380615%, 49.465942%, 15.719604%)" offset="0.546875"/><stop stop-opacity="1" stop-color="rgb(71.722412%, 49.740601%, 15.731812%)" offset="0.5625"/><stop stop-opacity="1" stop-color="rgb(72.064209%, 50.015259%, 15.744019%)" offset="0.578125"/><stop stop-opacity="1" stop-color="rgb(72.40448%, 50.289917%, 15.756226%)" offset="0.59375"/><stop stop-opacity="1" stop-color="rgb(72.746277%, 50.564575%, 15.768433%)" offset="0.609375"/><stop stop-opacity="1" stop-color="rgb(73.088074%, 50.839233%, 15.78064%)" offset="0.625"/><stop stop-opacity="1" stop-color="rgb(73.429871%, 51.112366%, 15.792847%)" offset="0.640625"/><stop stop-opacity="1" stop-color="rgb(73.771667%, 51.387024%, 15.805054%)" offset="0.65625"/><stop stop-opacity="1" stop-color="rgb(74.111938%, 51.661682%, 15.817261%)" offset="0.671875"/><stop stop-opacity="1" stop-color="rgb(74.453735%, 51.93634%, 15.829468%)" offset="0.6875"/><stop stop-opacity="1" stop-color="rgb(74.795532%, 52.210999%, 15.841675%)" offset="0.703125"/><stop stop-opacity="1" stop-color="rgb(75.137329%, 52.485657%, 15.853882%)" offset="0.71875"/><stop stop-opacity="1" stop-color="rgb(75.479126%, 52.758789%, 15.866089%)" offset="0.734375"/><stop stop-opacity="1" stop-color="rgb(75.820923%, 53.033447%, 15.878296%)" offset="0.75"/><stop stop-opacity="1" stop-color="rgb(76.161194%, 53.308105%, 15.890503%)" offset="0.765625"/><stop stop-opacity="1" stop-color="rgb(76.502991%, 53.582764%, 15.90271%)" offset="0.78125"/><stop stop-opacity="1" stop-color="rgb(76.844788%, 53.857422%, 15.914917%)" offset="0.796875"/><stop stop-opacity="1" stop-color="rgb(77.186584%, 54.13208%, 15.927124%)" offset="0.8125"/><stop stop-opacity="1" stop-color="rgb(77.528381%, 54.406738%, 15.939331%)" offset="0.828125"/><stop stop-opacity="1" stop-color="rgb(77.868652%, 54.679871%, 15.951538%)" offset="0.84375"/><stop stop-opacity="1" stop-color="rgb(78.210449%, 54.954529%, 15.963745%)" offset="0.859375"/><stop stop-opacity="1" stop-color="rgb(78.552246%, 55.229187%, 15.975952%)" offset="0.875"/><stop stop-opacity="1" stop-color="rgb(78.894043%, 55.503845%, 15.988159%)" offset="0.890625"/><stop stop-opacity="1" stop-color="rgb(79.23584%, 55.778503%, 16.000366%)" offset="0.90625"/><stop stop-opacity="1" stop-color="rgb(79.576111%, 56.053162%, 16.012573%)" offset="0.921875"/><stop stop-opacity="1" stop-color="rgb(79.917908%, 56.326294%, 16.02478%)" offset="0.9375"/><stop stop-opacity="1" stop-color="rgb(80.259705%, 56.600952%, 16.036987%)" offset="0.953125"/><stop stop-opacity="1" stop-color="rgb(80.601501%, 56.87561%, 16.049194%)" offset="0.96875"/><stop stop-opacity="1" stop-color="rgb(80.943298%, 57.150269%, 16.061401%)" offset="0.984375"/><stop stop-opacity="1" stop-color="rgb(81.283569%, 57.424927%, 16.073608%)" offset="1"/></linearGradient><clipPath id="d219a70ea1"><path d="M 112.164062 116 L 118 116 L 118 127 L 112.164062 127 Z M 112.164062 116 " clip-rule="nonzero"/></clipPath><clipPath id="fafd0c7475"><path d="M 105.125 114.210938 L 112.488281 114.210938 L 112.488281 129.007812 L 105.125 129.007812 Z M 105.125 114.210938 " clip-rule="nonzero"/></clipPath><clipPath id="488772e38d"><path d="M 105.125 114.210938 L 112.488281 114.210938 L 112.488281 129 L 105.125 129 Z M 105.125 114.210938 " clip-rule="nonzero"/></clipPath><clipPath id="e990f97ecd"><path d="M 112.523438 114.5625 C 108.613281 114.5625 105.441406 117.738281 105.441406 121.644531 C 105.441406 125.554688 108.613281 128.726562 112.523438 128.726562 L 112.523438 128.472656 C 108.753906 128.472656 105.695312 125.414062 105.695312 121.644531 C 105.695312 117.878906 108.753906 114.816406 112.523438 114.816406 Z M 112.523438 114.5625 " clip-rule="evenodd"/></clipPath><linearGradient x1="-0.00000155528" gradientTransform="matrix(0, 14.517033, 14.517033, 0, 112.522509, 114.563997)" y1="0" x2="0.975704" gradientUnits="userSpaceOnUse" y2="0" id="b05a3e15aa"><stop stop-opacity="1" stop-color="rgb(59.599304%, 39.99939%, 15.299988%)" offset="0"/><stop stop-opacity="1" stop-color="rgb(59.770203%, 40.136719%, 15.306091%)" offset="0.015625"/><stop stop-opacity="1" stop-color="rgb(60.112%, 40.411377%, 15.316772%)" offset="0.03125"/><stop stop-opacity="1" stop-color="rgb(60.452271%, 40.684509%, 15.328979%)" offset="0.046875"/><stop stop-opacity="1" stop-color="rgb(60.794067%, 40.959167%, 15.341187%)" offset="0.0625"/><stop stop-opacity="1" stop-color="rgb(61.135864%, 41.233826%, 15.353394%)" offset="0.078125"/><stop stop-opacity="1" stop-color="rgb(61.477661%, 41.508484%, 15.365601%)" offset="0.09375"/><stop stop-opacity="1" stop-color="rgb(61.819458%, 41.783142%, 15.377808%)" offset="0.109375"/><stop stop-opacity="1" stop-color="rgb(62.159729%, 42.0578%, 15.390015%)" offset="0.125"/><stop stop-opacity="1" stop-color="rgb(62.501526%, 42.330933%, 15.402222%)" offset="0.140625"/><stop stop-opacity="1" stop-color="rgb(62.843323%, 42.605591%, 15.414429%)" offset="0.15625"/><stop stop-opacity="1" stop-color="rgb(63.18512%, 42.880249%, 15.426636%)" offset="0.171875"/><stop stop-opacity="1" stop-color="rgb(63.526917%, 43.154907%, 15.438843%)" offset="0.1875"/><stop stop-opacity="1" stop-color="rgb(63.867188%, 43.429565%, 15.45105%)" offset="0.203125"/><stop stop-opacity="1" stop-color="rgb(64.208984%, 43.704224%, 15.463257%)" offset="0.21875"/><stop stop-opacity="1" stop-color="rgb(64.550781%, 43.978882%, 15.475464%)" offset="0.234375"/><stop stop-opacity="1" stop-color="rgb(64.892578%, 44.252014%, 15.487671%)" offset="0.25"/><stop stop-opacity="1" stop-color="rgb(65.234375%, 44.526672%, 15.499878%)" offset="0.265625"/><stop stop-opacity="1" stop-color="rgb(65.574646%, 44.801331%, 15.512085%)" offset="0.28125"/><stop stop-opacity="1" stop-color="rgb(65.916443%, 45.075989%, 15.524292%)" offset="0.296875"/><stop stop-opacity="1" stop-color="rgb(66.25824%, 45.350647%, 15.536499%)" offset="0.3125"/><stop stop-opacity="1" stop-color="rgb(66.600037%, 45.625305%, 15.548706%)" offset="0.328125"/><stop stop-opacity="1" stop-color="rgb(66.941833%, 45.898438%, 15.560913%)" offset="0.34375"/><stop stop-opacity="1" stop-color="rgb(67.282104%, 46.173096%, 15.57312%)" offset="0.359375"/><stop stop-opacity="1" stop-color="rgb(67.623901%, 46.447754%, 15.585327%)" offset="0.375"/><stop stop-opacity="1" stop-color="rgb(67.965698%, 46.722412%, 15.597534%)" offset="0.390625"/><stop stop-opacity="1" stop-color="rgb(68.307495%, 46.99707%, 15.609741%)" offset="0.40625"/><stop stop-opacity="1" stop-color="rgb(68.649292%, 47.271729%, 15.621948%)" offset="0.421875"/><stop stop-opacity="1" stop-color="rgb(68.989563%, 47.544861%, 15.634155%)" offset="0.4375"/><stop stop-opacity="1" stop-color="rgb(69.33136%, 47.819519%, 15.646362%)" offset="0.453125"/><stop stop-opacity="1" stop-color="rgb(69.673157%, 48.094177%, 15.658569%)" offset="0.46875"/><stop stop-opacity="1" stop-color="rgb(70.014954%, 48.368835%, 15.670776%)" offset="0.484375"/><stop stop-opacity="1" stop-color="rgb(70.35675%, 48.643494%, 15.682983%)" offset="0.5"/><stop stop-opacity="1" stop-color="rgb(70.697021%, 48.918152%, 15.69519%)" offset="0.515625"/><stop stop-opacity="1" stop-color="rgb(71.038818%, 49.19281%, 15.707397%)" offset="0.53125"/><stop stop-opacity="1" stop-color="rgb(71.380615%, 49.465942%, 15.719604%)" offset="0.546875"/><stop stop-opacity="1" stop-color="rgb(71.722412%, 49.740601%, 15.731812%)" offset="0.5625"/><stop stop-opacity="1" stop-color="rgb(72.064209%, 50.015259%, 15.744019%)" offset="0.578125"/><stop stop-opacity="1" stop-color="rgb(72.40448%, 50.289917%, 15.756226%)" offset="0.59375"/><stop stop-opacity="1" stop-color="rgb(72.746277%, 50.564575%, 15.768433%)" offset="0.609375"/><stop stop-opacity="1" stop-color="rgb(73.088074%, 50.839233%, 15.78064%)" offset="0.625"/><stop stop-opacity="1" stop-color="rgb(73.429871%, 51.112366%, 15.792847%)" offset="0.640625"/><stop stop-opacity="1" stop-color="rgb(73.771667%, 51.387024%, 15.805054%)" offset="0.65625"/><stop stop-opacity="1" stop-color="rgb(74.111938%, 51.661682%, 15.817261%)" offset="0.671875"/><stop stop-opacity="1" stop-color="rgb(74.453735%, 51.93634%, 15.829468%)" offset="0.6875"/><stop stop-opacity="1" stop-color="rgb(74.795532%, 52.210999%, 15.841675%)" offset="0.703125"/><stop stop-opacity="1" stop-color="rgb(75.137329%, 52.485657%, 15.853882%)" offset="0.71875"/><stop stop-opacity="1" stop-color="rgb(75.479126%, 52.758789%, 15.866089%)" offset="0.734375"/><stop stop-opacity="1" stop-color="rgb(75.820923%, 53.033447%, 15.878296%)" offset="0.75"/><stop stop-opacity="1" stop-color="rgb(76.161194%, 53.308105%, 15.890503%)" offset="0.765625"/><stop stop-opacity="1" stop-color="rgb(76.502991%, 53.582764%, 15.90271%)" offset="0.78125"/><stop stop-opacity="1" stop-color="rgb(76.844788%, 53.857422%, 15.914917%)" offset="0.796875"/><stop stop-opacity="1" stop-color="rgb(77.186584%, 54.13208%, 15.927124%)" offset="0.8125"/><stop stop-opacity="1" stop-color="rgb(77.528381%, 54.406738%, 15.939331%)" offset="0.828125"/><stop stop-opacity="1" stop-color="rgb(77.868652%, 54.679871%, 15.951538%)" offset="0.84375"/><stop stop-opacity="1" stop-color="rgb(78.210449%, 54.954529%, 15.963745%)" offset="0.859375"/><stop stop-opacity="1" stop-color="rgb(78.552246%, 55.229187%, 15.975952%)" offset="0.875"/><stop stop-opacity="1" stop-color="rgb(78.894043%, 55.503845%, 15.988159%)" offset="0.890625"/><stop stop-opacity="1" stop-color="rgb(79.23584%, 55.778503%, 16.000366%)" offset="0.90625"/><stop stop-opacity="1" stop-color="rgb(79.576111%, 56.053162%, 16.012573%)" offset="0.921875"/><stop stop-opacity="1" stop-color="rgb(79.917908%, 56.326294%, 16.02478%)" offset="0.9375"/><stop stop-opacity="1" stop-color="rgb(80.259705%, 56.600952%, 16.036987%)" offset="0.953125"/><stop stop-opacity="1" stop-color="rgb(80.601501%, 56.87561%, 16.049194%)" offset="0.96875"/><stop stop-opacity="1" stop-color="rgb(80.943298%, 57.150269%, 16.061401%)" offset="0.984375"/><stop stop-opacity="1" stop-color="rgb(81.283569%, 57.424927%, 16.073608%)" offset="1"/></linearGradient><clipPath id="ce48ce7529"><path d="M 107 116 L 112.488281 116 L 112.488281 127 L 107 127 Z M 107 116 " clip-rule="nonzero"/></clipPath><clipPath id="1e3e648f51"><path d="M 117.121094 135.355469 L 122.113281 135.355469 L 122.113281 145.34375 L 117.121094 145.34375 Z M 117.121094 135.355469 " clip-rule="nonzero"/></clipPath><clipPath id="44c2ce8cbb"><path d="M 117.121094 135.355469 L 122 135.355469 L 122 145.34375 L 117.121094 145.34375 Z M 117.121094 135.355469 " clip-rule="nonzero"/></clipPath><clipPath id="626a80eabf"><path d="M 117.121094 135.59375 C 119.757812 135.59375 121.902344 137.734375 121.902344 140.371094 C 121.902344 143.011719 119.757812 145.152344 117.121094 145.152344 L 117.121094 144.980469 C 119.664062 144.980469 121.730469 142.914062 121.730469 140.371094 C 121.730469 137.828125 119.664062 135.761719 117.121094 135.761719 Z M 117.121094 135.59375 " clip-rule="evenodd"/></clipPath><linearGradient x1="-0.000000373815" gradientTransform="matrix(0, 9.798511, -9.798511, 0, 117.121157, 135.591837)" y1="0" x2="0.975706" gradientUnits="userSpaceOnUse" y2="0" id="7456655247"><stop stop-opacity="1" stop-color="rgb(59.599304%, 39.99939%, 15.299988%)" offset="0"/><stop stop-opacity="1" stop-color="rgb(59.770203%, 40.136719%, 15.306091%)" offset="0.015625"/><stop stop-opacity="1" stop-color="rgb(60.112%, 40.411377%, 15.316772%)" offset="0.03125"/><stop stop-opacity="1" stop-color="rgb(60.452271%, 40.684509%, 15.328979%)" offset="0.046875"/><stop stop-opacity="1" stop-color="rgb(60.794067%, 40.959167%, 15.341187%)" offset="0.0625"/><stop stop-opacity="1" stop-color="rgb(61.135864%, 41.233826%, 15.353394%)" offset="0.078125"/><stop stop-opacity="1" stop-color="rgb(61.477661%, 41.508484%, 15.365601%)" offset="0.09375"/><stop stop-opacity="1" stop-color="rgb(61.819458%, 41.783142%, 15.377808%)" offset="0.109375"/><stop stop-opacity="1" stop-color="rgb(62.159729%, 42.0578%, 15.390015%)" offset="0.125"/><stop stop-opacity="1" stop-color="rgb(62.501526%, 42.330933%, 15.402222%)" offset="0.140625"/><stop stop-opacity="1" stop-color="rgb(62.843323%, 42.605591%, 15.414429%)" offset="0.15625"/><stop stop-opacity="1" stop-color="rgb(63.18512%, 42.880249%, 15.426636%)" offset="0.171875"/><stop stop-opacity="1" stop-color="rgb(63.526917%, 43.154907%, 15.438843%)" offset="0.1875"/><stop stop-opacity="1" stop-color="rgb(63.867188%, 43.429565%, 15.45105%)" offset="0.203125"/><stop stop-opacity="1" stop-color="rgb(64.208984%, 43.704224%, 15.463257%)" offset="0.21875"/><stop stop-opacity="1" stop-color="rgb(64.550781%, 43.978882%, 15.475464%)" offset="0.234375"/><stop stop-opacity="1" stop-color="rgb(64.892578%, 44.252014%, 15.487671%)" offset="0.25"/><stop stop-opacity="1" stop-color="rgb(65.234375%, 44.526672%, 15.499878%)" offset="0.265625"/><stop stop-opacity="1" stop-color="rgb(65.574646%, 44.801331%, 15.512085%)" offset="0.28125"/><stop stop-opacity="1" stop-color="rgb(65.916443%, 45.075989%, 15.524292%)" offset="0.296875"/><stop stop-opacity="1" stop-color="rgb(66.25824%, 45.350647%, 15.536499%)" offset="0.3125"/><stop stop-opacity="1" stop-color="rgb(66.600037%, 45.625305%, 15.548706%)" offset="0.328125"/><stop stop-opacity="1" stop-color="rgb(66.941833%, 45.898438%, 15.560913%)" offset="0.34375"/><stop stop-opacity="1" stop-color="rgb(67.282104%, 46.173096%, 15.57312%)" offset="0.359375"/><stop stop-opacity="1" stop-color="rgb(67.623901%, 46.447754%, 15.585327%)" offset="0.375"/><stop stop-opacity="1" stop-color="rgb(67.965698%, 46.722412%, 15.597534%)" offset="0.390625"/><stop stop-opacity="1" stop-color="rgb(68.307495%, 46.99707%, 15.609741%)" offset="0.40625"/><stop stop-opacity="1" stop-color="rgb(68.649292%, 47.271729%, 15.621948%)" offset="0.421875"/><stop stop-opacity="1" stop-color="rgb(68.989563%, 47.544861%, 15.634155%)" offset="0.4375"/><stop stop-opacity="1" stop-color="rgb(69.33136%, 47.819519%, 15.646362%)" offset="0.453125"/><stop stop-opacity="1" stop-color="rgb(69.673157%, 48.094177%, 15.658569%)" offset="0.46875"/><stop stop-opacity="1" stop-color="rgb(70.014954%, 48.368835%, 15.670776%)" offset="0.484375"/><stop stop-opacity="1" stop-color="rgb(70.35675%, 48.643494%, 15.682983%)" offset="0.5"/><stop stop-opacity="1" stop-color="rgb(70.697021%, 48.918152%, 15.69519%)" offset="0.515625"/><stop stop-opacity="1" stop-color="rgb(71.038818%, 49.19281%, 15.707397%)" offset="0.53125"/><stop stop-opacity="1" stop-color="rgb(71.380615%, 49.465942%, 15.719604%)" offset="0.546875"/><stop stop-opacity="1" stop-color="rgb(71.722412%, 49.740601%, 15.731812%)" offset="0.5625"/><stop stop-opacity="1" stop-color="rgb(72.064209%, 50.015259%, 15.744019%)" offset="0.578125"/><stop stop-opacity="1" stop-color="rgb(72.40448%, 50.289917%, 15.756226%)" offset="0.59375"/><stop stop-opacity="1" stop-color="rgb(72.746277%, 50.564575%, 15.768433%)" offset="0.609375"/><stop stop-opacity="1" stop-color="rgb(73.088074%, 50.839233%, 15.78064%)" offset="0.625"/><stop stop-opacity="1" stop-color="rgb(73.429871%, 51.112366%, 15.792847%)" offset="0.640625"/><stop stop-opacity="1" stop-color="rgb(73.771667%, 51.387024%, 15.805054%)" offset="0.65625"/><stop stop-opacity="1" stop-color="rgb(74.113464%, 51.661682%, 15.817261%)" offset="0.671875"/><stop stop-opacity="1" stop-color="rgb(74.453735%, 51.93634%, 15.829468%)" offset="0.6875"/><stop stop-opacity="1" stop-color="rgb(74.795532%, 52.210999%, 15.841675%)" offset="0.703125"/><stop stop-opacity="1" stop-color="rgb(75.137329%, 52.485657%, 15.853882%)" offset="0.71875"/><stop stop-opacity="1" stop-color="rgb(75.479126%, 52.758789%, 15.866089%)" offset="0.734375"/><stop stop-opacity="1" stop-color="rgb(75.820923%, 53.033447%, 15.878296%)" offset="0.75"/><stop stop-opacity="1" stop-color="rgb(76.161194%, 53.308105%, 15.890503%)" offset="0.765625"/><stop stop-opacity="1" stop-color="rgb(76.502991%, 53.582764%, 15.90271%)" offset="0.78125"/><stop stop-opacity="1" stop-color="rgb(76.844788%, 53.857422%, 15.914917%)" offset="0.796875"/><stop stop-opacity="1" stop-color="rgb(77.186584%, 54.13208%, 15.927124%)" offset="0.8125"/><stop stop-opacity="1" stop-color="rgb(77.528381%, 54.406738%, 15.939331%)" offset="0.828125"/><stop stop-opacity="1" stop-color="rgb(77.868652%, 54.679871%, 15.951538%)" offset="0.84375"/><stop stop-opacity="1" stop-color="rgb(78.210449%, 54.954529%, 15.963745%)" offset="0.859375"/><stop stop-opacity="1" stop-color="rgb(78.552246%, 55.229187%, 15.975952%)" offset="0.875"/><stop stop-opacity="1" stop-color="rgb(78.894043%, 55.503845%, 15.988159%)" offset="0.890625"/><stop stop-opacity="1" stop-color="rgb(79.23584%, 55.778503%, 16.000366%)" offset="0.90625"/><stop stop-opacity="1" stop-color="rgb(79.576111%, 56.053162%, 16.012573%)" offset="0.921875"/><stop stop-opacity="1" stop-color="rgb(79.917908%, 56.326294%, 16.02478%)" offset="0.9375"/><stop stop-opacity="1" stop-color="rgb(80.259705%, 56.600952%, 16.036987%)" offset="0.953125"/><stop stop-opacity="1" stop-color="rgb(80.601501%, 56.87561%, 16.049194%)" offset="0.96875"/><stop stop-opacity="1" stop-color="rgb(80.943298%, 57.150269%, 16.061401%)" offset="0.984375"/><stop stop-opacity="1" stop-color="rgb(81.283569%, 57.424927%, 16.073608%)" offset="1"/></linearGradient><clipPath id="d9d37360e9"><path d="M 117.121094 136 L 121 136 L 121 144 L 117.121094 144 Z M 117.121094 136 " clip-rule="nonzero"/></clipPath><clipPath id="3539b5c4ff"><path d="M 112.367188 135.355469 L 117.339844 135.355469 L 117.339844 145.34375 L 112.367188 145.34375 Z M 112.367188 135.355469 " clip-rule="nonzero"/></clipPath><clipPath id="043617c756"><path d="M 112.367188 135.355469 L 117.339844 135.355469 L 117.339844 145.34375 L 112.367188 145.34375 Z M 112.367188 135.355469 " clip-rule="nonzero"/></clipPath><clipPath id="75bb715c22"><path d="M 117.363281 135.59375 C 114.722656 135.59375 112.582031 137.734375 112.582031 140.371094 C 112.582031 143.011719 114.722656 145.152344 117.363281 145.152344 L 117.363281 144.980469 C 114.820312 144.980469 112.753906 142.914062 112.753906 140.371094 C 112.753906 137.828125 114.820312 135.761719 117.363281 135.761719 Z M 117.363281 135.59375 " clip-rule="evenodd"/></clipPath><linearGradient x1="-0.000000384999" gradientTransform="matrix(0, 9.79851, 9.79851, 0, 117.362208, 135.591837)" y1="0" x2="0.975706" gradientUnits="userSpaceOnUse" y2="0" id="e91e0fd54c"><stop stop-opacity="1" stop-color="rgb(59.599304%, 39.99939%, 15.299988%)" offset="0"/><stop stop-opacity="1" stop-color="rgb(59.770203%, 40.136719%, 15.306091%)" offset="0.015625"/><stop stop-opacity="1" stop-color="rgb(60.112%, 40.411377%, 15.316772%)" offset="0.03125"/><stop stop-opacity="1" stop-color="rgb(60.452271%, 40.684509%, 15.328979%)" offset="0.046875"/><stop stop-opacity="1" stop-color="rgb(60.794067%, 40.959167%, 15.341187%)" offset="0.0625"/><stop stop-opacity="1" stop-color="rgb(61.135864%, 41.233826%, 15.353394%)" offset="0.078125"/><stop stop-opacity="1" stop-color="rgb(61.477661%, 41.508484%, 15.365601%)" offset="0.09375"/><stop stop-opacity="1" stop-color="rgb(61.819458%, 41.783142%, 15.377808%)" offset="0.109375"/><stop stop-opacity="1" stop-color="rgb(62.159729%, 42.0578%, 15.390015%)" offset="0.125"/><stop stop-opacity="1" stop-color="rgb(62.501526%, 42.330933%, 15.402222%)" offset="0.140625"/><stop stop-opacity="1" stop-color="rgb(62.843323%, 42.605591%, 15.414429%)" offset="0.15625"/><stop stop-opacity="1" stop-color="rgb(63.18512%, 42.880249%, 15.426636%)" offset="0.171875"/><stop stop-opacity="1" stop-color="rgb(63.526917%, 43.154907%, 15.438843%)" offset="0.1875"/><stop stop-opacity="1" stop-color="rgb(63.867188%, 43.429565%, 15.45105%)" offset="0.203125"/><stop stop-opacity="1" stop-color="rgb(64.208984%, 43.704224%, 15.463257%)" offset="0.21875"/><stop stop-opacity="1" stop-color="rgb(64.550781%, 43.978882%, 15.475464%)" offset="0.234375"/><stop stop-opacity="1" stop-color="rgb(64.892578%, 44.252014%, 15.487671%)" offset="0.25"/><stop stop-opacity="1" stop-color="rgb(65.234375%, 44.526672%, 15.499878%)" offset="0.265625"/><stop stop-opacity="1" stop-color="rgb(65.574646%, 44.801331%, 15.512085%)" offset="0.28125"/><stop stop-opacity="1" stop-color="rgb(65.916443%, 45.075989%, 15.524292%)" offset="0.296875"/><stop stop-opacity="1" stop-color="rgb(66.25824%, 45.350647%, 15.536499%)" offset="0.3125"/><stop stop-opacity="1" stop-color="rgb(66.600037%, 45.625305%, 15.548706%)" offset="0.328125"/><stop stop-opacity="1" stop-color="rgb(66.941833%, 45.898438%, 15.560913%)" offset="0.34375"/><stop stop-opacity="1" stop-color="rgb(67.282104%, 46.173096%, 15.57312%)" offset="0.359375"/><stop stop-opacity="1" stop-color="rgb(67.623901%, 46.447754%, 15.585327%)" offset="0.375"/><stop stop-opacity="1" stop-color="rgb(67.965698%, 46.722412%, 15.597534%)" offset="0.390625"/><stop stop-opacity="1" stop-color="rgb(68.307495%, 46.99707%, 15.609741%)" offset="0.40625"/><stop stop-opacity="1" stop-color="rgb(68.649292%, 47.271729%, 15.621948%)" offset="0.421875"/><stop stop-opacity="1" stop-color="rgb(68.989563%, 47.544861%, 15.634155%)" offset="0.4375"/><stop stop-opacity="1" stop-color="rgb(69.33136%, 47.819519%, 15.646362%)" offset="0.453125"/><stop stop-opacity="1" stop-color="rgb(69.673157%, 48.094177%, 15.658569%)" offset="0.46875"/><stop stop-opacity="1" stop-color="rgb(70.014954%, 48.368835%, 15.670776%)" offset="0.484375"/><stop stop-opacity="1" stop-color="rgb(70.35675%, 48.643494%, 15.682983%)" offset="0.5"/><stop stop-opacity="1" stop-color="rgb(70.697021%, 48.918152%, 15.69519%)" offset="0.515625"/><stop stop-opacity="1" stop-color="rgb(71.038818%, 49.19281%, 15.707397%)" offset="0.53125"/><stop stop-opacity="1" stop-color="rgb(71.380615%, 49.465942%, 15.719604%)" offset="0.546875"/><stop stop-opacity="1" stop-color="rgb(71.722412%, 49.740601%, 15.731812%)" offset="0.5625"/><stop stop-opacity="1" stop-color="rgb(72.064209%, 50.015259%, 15.744019%)" offset="0.578125"/><stop stop-opacity="1" stop-color="rgb(72.40448%, 50.289917%, 15.756226%)" offset="0.59375"/><stop stop-opacity="1" stop-color="rgb(72.746277%, 50.564575%, 15.768433%)" offset="0.609375"/><stop stop-opacity="1" stop-color="rgb(73.088074%, 50.839233%, 15.78064%)" offset="0.625"/><stop stop-opacity="1" stop-color="rgb(73.429871%, 51.112366%, 15.792847%)" offset="0.640625"/><stop stop-opacity="1" stop-color="rgb(73.771667%, 51.387024%, 15.805054%)" offset="0.65625"/><stop stop-opacity="1" stop-color="rgb(74.113464%, 51.661682%, 15.817261%)" offset="0.671875"/><stop stop-opacity="1" stop-color="rgb(74.453735%, 51.93634%, 15.829468%)" offset="0.6875"/><stop stop-opacity="1" stop-color="rgb(74.795532%, 52.210999%, 15.841675%)" offset="0.703125"/><stop stop-opacity="1" stop-color="rgb(75.137329%, 52.485657%, 15.853882%)" offset="0.71875"/><stop stop-opacity="1" stop-color="rgb(75.479126%, 52.758789%, 15.866089%)" offset="0.734375"/><stop stop-opacity="1" stop-color="rgb(75.820923%, 53.033447%, 15.878296%)" offset="0.75"/><stop stop-opacity="1" stop-color="rgb(76.161194%, 53.308105%, 15.890503%)" offset="0.765625"/><stop stop-opacity="1" stop-color="rgb(76.502991%, 53.582764%, 15.90271%)" offset="0.78125"/><stop stop-opacity="1" stop-color="rgb(76.844788%, 53.857422%, 15.914917%)" offset="0.796875"/><stop stop-opacity="1" stop-color="rgb(77.186584%, 54.13208%, 15.927124%)" offset="0.8125"/><stop stop-opacity="1" stop-color="rgb(77.528381%, 54.406738%, 15.939331%)" offset="0.828125"/><stop stop-opacity="1" stop-color="rgb(77.868652%, 54.679871%, 15.951538%)" offset="0.84375"/><stop stop-opacity="1" stop-color="rgb(78.210449%, 54.954529%, 15.963745%)" offset="0.859375"/><stop stop-opacity="1" stop-color="rgb(78.552246%, 55.229187%, 15.975952%)" offset="0.875"/><stop stop-opacity="1" stop-color="rgb(78.894043%, 55.503845%, 15.988159%)" offset="0.890625"/><stop stop-opacity="1" stop-color="rgb(79.23584%, 55.778503%, 16.000366%)" offset="0.90625"/><stop stop-opacity="1" stop-color="rgb(79.576111%, 56.053162%, 16.012573%)" offset="0.921875"/><stop stop-opacity="1" stop-color="rgb(79.917908%, 56.326294%, 16.02478%)" offset="0.9375"/><stop stop-opacity="1" stop-color="rgb(80.259705%, 56.600952%, 16.036987%)" offset="0.953125"/><stop stop-opacity="1" stop-color="rgb(80.601501%, 56.87561%, 16.049194%)" offset="0.96875"/><stop stop-opacity="1" stop-color="rgb(80.943298%, 57.150269%, 16.061401%)" offset="0.984375"/><stop stop-opacity="1" stop-color="rgb(81.283569%, 57.424927%, 16.073608%)" offset="1"/></linearGradient><clipPath id="e9a8e22741"><path d="M 113 136 L 117.339844 136 L 117.339844 144 L 113 144 Z M 113 136 " clip-rule="nonzero"/></clipPath></defs><path fill="#00bf63" d="M 131.644531 102 C 145.914062 111.226562 150 130.4375 140.773438 144.707031 L 98.164062 210.414062 C 88.9375 224.683594 69.726562 228.769531 55.492188 219.542969 C 52.03125 217.300781 49.199219 214.5 46.992188 211.304688 L 31.503906 211.304688 C 28.832031 211.304688 26.660156 209.128906 26.660156 206.460938 C 26.660156 203.792969 28.832031 201.617188 31.503906 201.617188 L 60.136719 201.617188 C 60.46875 201.617188 60.765625 201.648438 61.0625 201.714844 C 63.730469 201.714844 65.90625 199.539062 65.90625 196.871094 C 65.90625 194.203125 63.730469 192.027344 61.0625 192.027344 L 4.84375 192.027344 C 2.207031 192.027344 0 189.851562 0 187.183594 C 0 184.515625 2.175781 182.339844 4.84375 182.339844 L 97.375 182.339844 C 100.042969 182.339844 102.21875 180.164062 102.21875 177.496094 C 102.21875 174.824219 100.042969 172.652344 97.375 172.652344 L 52.460938 172.652344 C 49.792969 172.652344 47.617188 170.476562 47.617188 167.808594 C 47.617188 165.136719 49.792969 162.964844 52.460938 162.964844 L 82.710938 162.964844 C 85.378906 162.964844 87.554688 160.789062 87.554688 158.117188 C 87.554688 155.449219 85.378906 153.273438 82.710938 153.273438 L 53.285156 153.273438 C 50.613281 153.273438 48.441406 151.101562 48.441406 148.429688 C 48.441406 145.761719 50.613281 143.585938 53.285156 143.585938 L 67.949219 143.585938 L 88.9375 111.160156 C 98.164062 96.859375 117.378906 92.773438 131.644531 102 Z M 24.550781 162.929688 C 21.878906 162.929688 19.707031 165.105469 19.707031 167.773438 C 19.707031 170.445312 21.878906 172.617188 24.550781 172.617188 L 35.6875 172.617188 C 38.324219 172.617188 40.53125 170.410156 40.53125 167.773438 C 40.53125 165.136719 38.355469 162.929688 35.6875 162.929688 Z M 81.558594 141.378906 C 88.972656 140.226562 96.617188 141.773438 103.042969 145.960938 C 109.5 150.113281 114.046875 156.472656 116.027344 163.722656 L 132.074219 139.074219 C 138.203125 129.613281 135.46875 116.828125 125.976562 110.667969 C 116.519531 104.539062 103.734375 107.273438 97.605469 116.730469 Z M 81.558594 141.378906 " fill-opacity="1" fill-rule="evenodd"/><g fill="#00bf63" fill-opacity="1"><g transform="translate(112.892655, 219.585746)"><g><path d="M 9.90625 0 L 3.015625 0 L 3.015625 -28.359375 L 15.765625 -28.359375 C 19.171875 -28.359375 21.800781 -27.59375 23.65625 -26.0625 C 25.507812 -24.53125 26.4375 -22.21875 26.4375 -19.125 C 26.4375 -15.976562 25.492188 -13.554688 23.609375 -11.859375 C 21.734375 -10.160156 19.117188 -9.3125 15.765625 -9.3125 L 9.90625 -9.3125 Z M 14.921875 -14.625 C 16.304688 -14.625 17.332031 -14.984375 18 -15.703125 C 18.664062 -16.429688 19 -17.421875 19 -18.671875 C 19 -21.554688 17.640625 -23 14.921875 -23 L 9.90625 -23 L 9.90625 -14.625 Z M 14.921875 -14.625 "/></g></g></g><g fill="#00bf63" fill-opacity="1"><g transform="translate(141.115237, 219.585746)"><g><path d="M 15.265625 -22.109375 C 17.753906 -22.109375 19.691406 -21.484375 21.078125 -20.234375 C 22.472656 -18.984375 23.171875 -16.941406 23.171875 -14.109375 L 23.171875 0 L 16.84375 0 L 16.84375 -12.796875 C 16.84375 -15.515625 15.476562 -16.875 12.75 -16.875 C 12.101562 -16.875 11.4375 -16.773438 10.75 -16.578125 C 10.070312 -16.378906 9.550781 -16.140625 9.1875 -15.859375 L 9.09375 0 L 2.8125 0 L 2.8125 -30.015625 L 9.1875 -30.015625 L 9.1875 -20.53125 C 11.132812 -21.582031 13.160156 -22.109375 15.265625 -22.109375 Z M 15.265625 -22.109375 "/></g></g></g><g fill="#00bf63" fill-opacity="1"><g transform="translate(167.085118, 219.585746)"><g><path d="M 12.203125 -22.15625 C 14.554688 -22.15625 16.695312 -21.609375 18.625 -20.515625 C 20.550781 -19.421875 21.515625 -17.457031 21.515625 -14.625 L 21.46875 -4.46875 C 21.4375 -2.675781 20.539062 -1.375 18.78125 -0.5625 C 17.03125 0.238281 14.46875 0.640625 11.09375 0.640625 C 4.800781 0.640625 1.65625 -1.8125 1.65625 -6.71875 C 1.65625 -8.789062 2.300781 -10.40625 3.59375 -11.5625 C 4.882812 -12.726562 6.804688 -13.3125 9.359375 -13.3125 C 10.398438 -13.3125 11.445312 -13.175781 12.5 -12.90625 C 13.550781 -12.632812 14.457031 -12.285156 15.21875 -11.859375 L 15.21875 -13.21875 C 15.21875 -15.6875 13.628906 -16.921875 10.453125 -16.921875 C 9.234375 -16.921875 7.976562 -16.703125 6.6875 -16.265625 C 5.40625 -15.828125 4.378906 -15.296875 3.609375 -14.671875 L 3.609375 -20.28125 C 4.378906 -20.789062 5.550781 -21.226562 7.125 -21.59375 C 8.695312 -21.96875 10.390625 -22.15625 12.203125 -22.15625 Z M 11.3125 -3.828125 C 12.78125 -3.828125 13.796875 -3.925781 14.359375 -4.125 C 14.929688 -4.320312 15.21875 -4.71875 15.21875 -5.3125 L 15.21875 -8.625 C 14.226562 -8.96875 13.140625 -9.140625 11.953125 -9.140625 C 10.554688 -9.140625 9.539062 -8.929688 8.90625 -8.515625 C 8.269531 -8.109375 7.953125 -7.46875 7.953125 -6.59375 C 7.953125 -5.769531 8.285156 -5.101562 8.953125 -4.59375 C 9.617188 -4.082031 10.40625 -3.828125 11.3125 -3.828125 Z M 11.3125 -3.828125 "/></g></g></g><g fill="#00bf63" fill-opacity="1"><g transform="translate(191.397346, 219.585746)"><g><path d="M 2.8125 -19.265625 C 3.226562 -19.628906 3.96875 -20.035156 5.03125 -20.484375 C 6.09375 -20.941406 7.285156 -21.332031 8.609375 -21.65625 C 9.929688 -21.988281 11.203125 -22.15625 12.421875 -22.15625 C 14.765625 -22.15625 16.390625 -21.800781 17.296875 -21.09375 L 17.296875 -16.453125 C 16.171875 -16.710938 14.546875 -16.84375 12.421875 -16.84375 C 11.085938 -16.84375 9.992188 -16.769531 9.140625 -16.625 L 9.140625 0 L 2.8125 0 Z M 2.8125 -19.265625 "/></g></g></g><g fill="#00bf63" fill-opacity="1"><g transform="translate(209.589011, 219.585746)"><g><path d="M 27.296875 -22.109375 C 30.296875 -22.109375 32.519531 -21.519531 33.96875 -20.34375 C 35.414062 -19.164062 36.140625 -17.203125 36.140625 -14.453125 L 36.140625 0 L 29.796875 0 L 29.796875 -13.1875 C 29.796875 -15.644531 28.410156 -16.875 25.640625 -16.875 C 24.472656 -16.875 23.492188 -16.609375 22.703125 -16.078125 C 22.753906 -15.390625 22.78125 -14.847656 22.78125 -14.453125 L 22.78125 0 L 16.453125 0 L 16.453125 -13.1875 C 16.453125 -15.644531 15.0625 -16.875 12.28125 -16.875 C 11.15625 -16.875 10.109375 -16.632812 9.140625 -16.15625 L 9.140625 0 L 2.8125 0 L 2.8125 -19.6875 C 3.914062 -20.28125 5.597656 -20.832031 7.859375 -21.34375 C 10.128906 -21.851562 12.15625 -22.109375 13.9375 -22.109375 C 16.800781 -22.109375 18.914062 -21.597656 20.28125 -20.578125 C 21.382812 -21.054688 22.550781 -21.429688 23.78125 -21.703125 C 25.019531 -21.972656 26.191406 -22.109375 27.296875 -22.109375 Z M 27.296875 -22.109375 "/></g></g></g><g fill="#00bf63" fill-opacity="1"><g transform="translate(248.522575, 219.585746)"><g><path d="M 12.203125 -22.15625 C 14.554688 -22.15625 16.695312 -21.609375 18.625 -20.515625 C 20.550781 -19.421875 21.515625 -17.457031 21.515625 -14.625 L 21.46875 -4.46875 C 21.4375 -2.675781 20.539062 -1.375 18.78125 -0.5625 C 17.03125 0.238281 14.46875 0.640625 11.09375 0.640625 C 4.800781 0.640625 1.65625 -1.8125 1.65625 -6.71875 C 1.65625 -8.789062 2.300781 -10.40625 3.59375 -11.5625 C 4.882812 -12.726562 6.804688 -13.3125 9.359375 -13.3125 C 10.398438 -13.3125 11.445312 -13.175781 12.5 -12.90625 C 13.550781 -12.632812 14.457031 -12.285156 15.21875 -11.859375 L 15.21875 -13.21875 C 15.21875 -15.6875 13.628906 -16.921875 10.453125 -16.921875 C 9.234375 -16.921875 7.976562 -16.703125 6.6875 -16.265625 C 5.40625 -15.828125 4.378906 -15.296875 3.609375 -14.671875 L 3.609375 -20.28125 C 4.378906 -20.789062 5.550781 -21.226562 7.125 -21.59375 C 8.695312 -21.96875 10.390625 -22.15625 12.203125 -22.15625 Z M 11.3125 -3.828125 C 12.78125 -3.828125 13.796875 -3.925781 14.359375 -4.125 C 14.929688 -4.320312 15.21875 -4.71875 15.21875 -5.3125 L 15.21875 -8.625 C 14.226562 -8.96875 13.140625 -9.140625 11.953125 -9.140625 C 10.554688 -9.140625 9.539062 -8.929688 8.90625 -8.515625 C 8.269531 -8.109375 7.953125 -7.46875 7.953125 -6.59375 C 7.953125 -5.769531 8.285156 -5.101562 8.953125 -4.59375 C 9.617188 -4.082031 10.40625 -3.828125 11.3125 -3.828125 Z M 11.3125 -3.828125 "/></g></g></g><g fill="#00bf63" fill-opacity="1"><g transform="translate(272.834803, 219.585746)"><g><path d="M 41.875 -28.359375 L 33.921875 0 L 27.125 0 L 21.46875 -18.40625 L 15.8125 0 L 9.015625 0 L 1.0625 -28.359375 L 8.59375 -28.359375 L 13.046875 -8.546875 L 18.796875 -28.359375 L 24.109375 -28.359375 L 29.890625 -8.5 L 34.359375 -28.359375 Z M 41.875 -28.359375 "/></g></g></g><g fill="#00bf63" fill-opacity="1"><g transform="translate(315.763729, 219.585746)"><g><path d="M 2.8125 -29.328125 L 9.359375 -29.328125 L 9.359375 -24.453125 L 2.8125 -24.453125 Z M 2.9375 -21.21875 L 9.265625 -21.21875 L 9.3125 0 L 2.9375 0 Z M 2.9375 -21.21875 "/></g></g></g><g fill="#00bf63" fill-opacity="1"><g transform="translate(327.919848, 219.585746)"><g><path d="M 15.859375 0 L 9.140625 -8.890625 L 9.09375 0 L 2.8125 0 L 2.8125 -29.640625 L 9.1875 -29.640625 L 9.140625 -13.5625 L 15.640625 -21.515625 L 23.34375 -21.515625 L 14.453125 -12.15625 L 23.890625 0 Z M 15.859375 0 "/></g></g></g><g fill="#00bf63" fill-opacity="1"><g transform="translate(352.912141, 219.585746)"><g><path d="M 2.8125 -29.328125 L 9.359375 -29.328125 L 9.359375 -24.453125 L 2.8125 -24.453125 Z M 2.9375 -21.21875 L 9.265625 -21.21875 L 9.3125 0 L 2.9375 0 Z M 2.9375 -21.21875 "/></g></g></g><g clip-path="url(#1db2b4a843)"><path fill="#00bf63" d="M 112.164062 118.777344 L 112.164062 114.210938 C 116.269531 114.210938 119.601562 117.542969 119.601562 121.644531 C 119.601562 125.75 116.269531 129.082031 112.164062 129.082031 L 112.164062 124.515625 C 113.75 124.515625 115.035156 123.230469 115.035156 121.644531 C 115.035156 120.0625 113.75 118.777344 112.164062 118.777344 Z M 112.164062 118.777344 " fill-opacity="1" fill-rule="evenodd"/></g><g clip-path="url(#1d54ea74f1)"><g clip-path="url(#2651278643)"><path fill="url(#aca8cab1a5)" d="M 119.246094 114.5625 L 112.164062 114.5625 L 112.164062 128.726562 L 119.246094 128.726562 Z M 119.246094 114.5625 " fill-rule="nonzero"/></g></g><g clip-path="url(#d219a70ea1)"><path fill="#00bf63" d="M 112.164062 118.777344 L 112.164062 116.332031 C 115.097656 116.332031 117.480469 118.714844 117.480469 121.644531 C 117.480469 124.578125 115.097656 126.960938 112.164062 126.960938 L 112.164062 124.515625 C 113.75 124.515625 115.035156 123.230469 115.035156 121.644531 C 115.035156 120.0625 113.75 118.777344 112.164062 118.777344 Z M 112.164062 118.777344 " fill-opacity="1" fill-rule="evenodd"/></g><g clip-path="url(#fafd0c7475)"><path fill="#00bf63" d="M 112.523438 118.777344 L 112.523438 114.210938 C 108.417969 114.210938 105.085938 117.542969 105.085938 121.644531 C 105.085938 125.75 108.417969 129.082031 112.523438 129.082031 L 112.523438 124.515625 C 110.941406 124.515625 109.65625 123.230469 109.65625 121.644531 C 109.65625 120.0625 110.941406 118.777344 112.523438 118.777344 Z M 112.523438 118.777344 " fill-opacity="1" fill-rule="evenodd"/></g><g clip-path="url(#488772e38d)"><g clip-path="url(#e990f97ecd)"><path fill="url(#b05a3e15aa)" d="M 105.441406 114.5625 L 112.488281 114.5625 L 112.488281 128.726562 L 105.441406 128.726562 Z M 105.441406 114.5625 " fill-rule="nonzero"/></g></g><g clip-path="url(#ce48ce7529)"><path fill="#00bf63" d="M 112.523438 118.777344 L 112.523438 116.332031 C 109.589844 116.332031 107.210938 118.714844 107.210938 121.644531 C 107.210938 124.578125 109.589844 126.960938 112.523438 126.960938 L 112.523438 124.515625 C 110.941406 124.515625 109.65625 123.230469 109.65625 121.644531 C 109.65625 120.0625 110.941406 118.777344 112.523438 118.777344 Z M 112.523438 118.777344 " fill-opacity="1" fill-rule="evenodd"/></g><g clip-path="url(#1e3e648f51)"><path fill="#00bf63" d="M 117.121094 138.4375 L 117.121094 135.355469 C 119.890625 135.355469 122.140625 137.601562 122.140625 140.371094 C 122.140625 143.140625 119.890625 145.390625 117.121094 145.390625 L 117.121094 142.308594 C 118.191406 142.308594 119.058594 141.441406 119.058594 140.371094 C 119.058594 139.304688 118.191406 138.4375 117.121094 138.4375 Z M 117.121094 138.4375 " fill-opacity="1" fill-rule="evenodd"/></g><g clip-path="url(#44c2ce8cbb)"><g clip-path="url(#626a80eabf)"><path fill="url(#7456655247)" d="M 121.902344 135.59375 L 117.121094 135.59375 L 117.121094 145.152344 L 121.902344 145.152344 Z M 121.902344 135.59375 " fill-rule="nonzero"/></g></g><g clip-path="url(#d9d37360e9)"><path fill="#00bf63" d="M 117.121094 138.4375 L 117.121094 136.785156 C 119.101562 136.785156 120.707031 138.394531 120.707031 140.371094 C 120.707031 142.351562 119.101562 143.957031 117.121094 143.957031 L 117.121094 142.308594 C 118.191406 142.308594 119.058594 141.441406 119.058594 140.371094 C 119.058594 139.304688 118.191406 138.4375 117.121094 138.4375 Z M 117.121094 138.4375 " fill-opacity="1" fill-rule="evenodd"/></g><g clip-path="url(#3539b5c4ff)"><path fill="#00bf63" d="M 117.363281 138.4375 L 117.363281 135.355469 C 114.59375 135.355469 112.34375 137.601562 112.34375 140.371094 C 112.34375 143.140625 114.59375 145.390625 117.363281 145.390625 L 117.363281 142.308594 C 116.292969 142.308594 115.425781 141.441406 115.425781 140.371094 C 115.425781 139.304688 116.292969 138.4375 117.363281 138.4375 Z M 117.363281 138.4375 " fill-opacity="1" fill-rule="evenodd"/></g><g clip-path="url(#043617c756)"><g clip-path="url(#75bb715c22)"><path fill="url(#e91e0fd54c)" d="M 112.582031 135.59375 L 117.339844 135.59375 L 117.339844 145.152344 L 112.582031 145.152344 Z M 112.582031 135.59375 " fill-rule="nonzero"/></g></g><g clip-path="url(#e9a8e22741)"><path fill="#00bf63" d="M 117.363281 138.4375 L 117.363281 136.785156 C 115.382812 136.785156 113.777344 138.394531 113.777344 140.371094 C 113.777344 142.351562 115.382812 143.957031 117.363281 143.957031 L 117.363281 142.308594 C 116.292969 142.308594 115.425781 141.441406 115.425781 140.371094 C 115.425781 139.304688 116.292969 138.4375 117.363281 138.4375 Z M 117.363281 138.4375 " fill-opacity="1" fill-rule="evenodd"/></g></svg>