<svg xmlns="http://www.w3.org/2000/svg" xmlns:xlink="http://www.w3.org/1999/xlink" width="500" zoomAndPan="magnify" viewBox="0 0 375 374.999991" height="500" preserveAspectRatio="xMidYMid meet" version="1.0"><defs><g/><clipPath id="091b04fb02"><path d="M 112.5 97 L 259 97 L 259 226 L 112.5 226 Z M 112.5 97 " clip-rule="nonzero"/></clipPath><clipPath id="088c958d2e"><path d="M 224.664062 115.125 L 232.0625 115.125 L 232.0625 129.925781 L 224.664062 129.925781 Z M 224.664062 115.125 " clip-rule="nonzero"/></clipPath><clipPath id="1c883ce0df"><path d="M 224.664062 115.125 L 232 115.125 L 232 129.925781 L 224.664062 129.925781 Z M 224.664062 115.125 " clip-rule="nonzero"/></clipPath><clipPath id="6a7d36e5cb"><path d="M 224.664062 115.480469 C 228.574219 115.480469 231.746094 118.652344 231.746094 122.5625 C 231.746094 126.46875 228.574219 129.644531 224.664062 129.644531 L 224.664062 129.390625 C 228.433594 129.390625 231.492188 126.328125 231.492188 122.5625 C 231.492188 118.792969 228.433594 115.734375 224.664062 115.734375 Z M 224.664062 115.480469 " clip-rule="evenodd"/></clipPath><linearGradient x1="-0.0000015028" gradientTransform="matrix(0, 14.517033, -14.517033, 0, 224.665339, 115.479157)" y1="0" x2="0.975704" gradientUnits="userSpaceOnUse" y2="0" id="d9c70bf979"><stop stop-opacity="1" stop-color="rgb(59.599304%, 39.99939%, 15.299988%)" offset="0"/><stop stop-opacity="1" stop-color="rgb(59.770203%, 40.136719%, 15.306091%)" offset="0.015625"/><stop stop-opacity="1" stop-color="rgb(60.112%, 40.411377%, 15.316772%)" offset="0.03125"/><stop stop-opacity="1" stop-color="rgb(60.452271%, 40.684509%, 15.328979%)" offset="0.046875"/><stop stop-opacity="1" stop-color="rgb(60.794067%, 40.959167%, 15.341187%)" offset="0.0625"/><stop stop-opacity="1" stop-color="rgb(61.135864%, 41.233826%, 15.353394%)" offset="0.078125"/><stop stop-opacity="1" stop-color="rgb(61.477661%, 41.508484%, 15.365601%)" offset="0.09375"/><stop stop-opacity="1" stop-color="rgb(61.819458%, 41.783142%, 15.377808%)" offset="0.109375"/><stop stop-opacity="1" stop-color="rgb(62.159729%, 42.0578%, 15.390015%)" offset="0.125"/><stop stop-opacity="1" stop-color="rgb(62.501526%, 42.330933%, 15.402222%)" offset="0.140625"/><stop stop-opacity="1" stop-color="rgb(62.843323%, 42.605591%, 15.414429%)" offset="0.15625"/><stop stop-opacity="1" stop-color="rgb(63.18512%, 42.880249%, 15.426636%)" offset="0.171875"/><stop stop-opacity="1" stop-color="rgb(63.526917%, 43.154907%, 15.438843%)" offset="0.1875"/><stop stop-opacity="1" stop-color="rgb(63.867188%, 43.429565%, 15.45105%)" offset="0.203125"/><stop stop-opacity="1" stop-color="rgb(64.208984%, 43.704224%, 15.463257%)" offset="0.21875"/><stop stop-opacity="1" stop-color="rgb(64.550781%, 43.978882%, 15.475464%)" offset="0.234375"/><stop stop-opacity="1" stop-color="rgb(64.892578%, 44.252014%, 15.487671%)" offset="0.25"/><stop stop-opacity="1" stop-color="rgb(65.234375%, 44.526672%, 15.499878%)" offset="0.265625"/><stop stop-opacity="1" stop-color="rgb(65.574646%, 44.801331%, 15.512085%)" offset="0.28125"/><stop stop-opacity="1" stop-color="rgb(65.916443%, 45.075989%, 15.524292%)" offset="0.296875"/><stop stop-opacity="1" stop-color="rgb(66.25824%, 45.350647%, 15.536499%)" offset="0.3125"/><stop stop-opacity="1" stop-color="rgb(66.600037%, 45.625305%, 15.548706%)" offset="0.328125"/><stop stop-opacity="1" stop-color="rgb(66.941833%, 45.898438%, 15.560913%)" offset="0.34375"/><stop stop-opacity="1" stop-color="rgb(67.282104%, 46.173096%, 15.57312%)" offset="0.359375"/><stop stop-opacity="1" stop-color="rgb(67.623901%, 46.447754%, 15.585327%)" offset="0.375"/><stop stop-opacity="1" stop-color="rgb(67.965698%, 46.722412%, 15.597534%)" offset="0.390625"/><stop stop-opacity="1" stop-color="rgb(68.307495%, 46.99707%, 15.609741%)" offset="0.40625"/><stop stop-opacity="1" stop-color="rgb(68.649292%, 47.271729%, 15.621948%)" offset="0.421875"/><stop stop-opacity="1" stop-color="rgb(68.989563%, 47.544861%, 15.634155%)" offset="0.4375"/><stop stop-opacity="1" stop-color="rgb(69.33136%, 47.819519%, 15.646362%)" offset="0.453125"/><stop stop-opacity="1" stop-color="rgb(69.673157%, 48.094177%, 15.658569%)" offset="0.46875"/><stop stop-opacity="1" stop-color="rgb(70.014954%, 48.368835%, 15.670776%)" offset="0.484375"/><stop stop-opacity="1" stop-color="rgb(70.35675%, 48.643494%, 15.682983%)" offset="0.5"/><stop stop-opacity="1" stop-color="rgb(70.697021%, 48.918152%, 15.69519%)" offset="0.515625"/><stop stop-opacity="1" stop-color="rgb(71.038818%, 49.19281%, 15.707397%)" offset="0.53125"/><stop stop-opacity="1" stop-color="rgb(71.380615%, 49.465942%, 15.719604%)" offset="0.546875"/><stop stop-opacity="1" stop-color="rgb(71.722412%, 49.740601%, 15.731812%)" offset="0.5625"/><stop stop-opacity="1" stop-color="rgb(72.064209%, 50.015259%, 15.744019%)" offset="0.578125"/><stop stop-opacity="1" stop-color="rgb(72.40448%, 50.289917%, 15.756226%)" offset="0.59375"/><stop stop-opacity="1" stop-color="rgb(72.746277%, 50.564575%, 15.768433%)" offset="0.609375"/><stop stop-opacity="1" stop-color="rgb(73.088074%, 50.839233%, 15.78064%)" offset="0.625"/><stop stop-opacity="1" stop-color="rgb(73.429871%, 51.112366%, 15.792847%)" offset="0.640625"/><stop stop-opacity="1" stop-color="rgb(73.771667%, 51.387024%, 15.805054%)" offset="0.65625"/><stop stop-opacity="1" stop-color="rgb(74.111938%, 51.661682%, 15.817261%)" offset="0.671875"/><stop stop-opacity="1" stop-color="rgb(74.453735%, 51.93634%, 15.829468%)" offset="0.6875"/><stop stop-opacity="1" stop-color="rgb(74.795532%, 52.210999%, 15.841675%)" offset="0.703125"/><stop stop-opacity="1" stop-color="rgb(75.137329%, 52.485657%, 15.853882%)" offset="0.71875"/><stop stop-opacity="1" stop-color="rgb(75.479126%, 52.758789%, 15.866089%)" offset="0.734375"/><stop stop-opacity="1" stop-color="rgb(75.820923%, 53.033447%, 15.878296%)" offset="0.75"/><stop stop-opacity="1" stop-color="rgb(76.161194%, 53.308105%, 15.890503%)" offset="0.765625"/><stop stop-opacity="1" stop-color="rgb(76.502991%, 53.582764%, 15.90271%)" offset="0.78125"/><stop stop-opacity="1" stop-color="rgb(76.844788%, 53.857422%, 15.914917%)" offset="0.796875"/><stop stop-opacity="1" stop-color="rgb(77.186584%, 54.13208%, 15.927124%)" offset="0.8125"/><stop stop-opacity="1" stop-color="rgb(77.528381%, 54.406738%, 15.939331%)" offset="0.828125"/><stop stop-opacity="1" stop-color="rgb(77.868652%, 54.679871%, 15.951538%)" offset="0.84375"/><stop stop-opacity="1" stop-color="rgb(78.210449%, 54.954529%, 15.963745%)" offset="0.859375"/><stop stop-opacity="1" stop-color="rgb(78.552246%, 55.229187%, 15.975952%)" offset="0.875"/><stop stop-opacity="1" stop-color="rgb(78.894043%, 55.503845%, 15.988159%)" offset="0.890625"/><stop stop-opacity="1" stop-color="rgb(79.23584%, 55.778503%, 16.000366%)" offset="0.90625"/><stop stop-opacity="1" stop-color="rgb(79.576111%, 56.053162%, 16.012573%)" offset="0.921875"/><stop stop-opacity="1" stop-color="rgb(79.917908%, 56.326294%, 16.02478%)" offset="0.9375"/><stop stop-opacity="1" stop-color="rgb(80.259705%, 56.600952%, 16.036987%)" offset="0.953125"/><stop stop-opacity="1" stop-color="rgb(80.601501%, 56.87561%, 16.049194%)" offset="0.96875"/><stop stop-opacity="1" stop-color="rgb(80.943298%, 57.150269%, 16.061401%)" offset="0.984375"/><stop stop-opacity="1" stop-color="rgb(81.283569%, 57.424927%, 16.073608%)" offset="1"/></linearGradient><clipPath id="e073f91bda"><path d="M 224.664062 117 L 230 117 L 230 128 L 224.664062 128 Z M 224.664062 117 " clip-rule="nonzero"/></clipPath><clipPath id="2963794654"><path d="M 217.625 115.125 L 224.988281 115.125 L 224.988281 129.925781 L 217.625 129.925781 Z M 217.625 115.125 " clip-rule="nonzero"/></clipPath><clipPath id="10620a9640"><path d="M 217.625 115.125 L 224.988281 115.125 L 224.988281 129.925781 L 217.625 129.925781 Z M 217.625 115.125 " clip-rule="nonzero"/></clipPath><clipPath id="f8e4c476e4"><path d="M 225.023438 115.480469 C 221.113281 115.480469 217.941406 118.652344 217.941406 122.5625 C 217.941406 126.46875 221.113281 129.644531 225.023438 129.644531 L 225.023438 129.390625 C 221.253906 129.390625 218.195312 126.328125 218.195312 122.5625 C 218.195312 118.792969 221.253906 115.734375 225.023438 115.734375 Z M 225.023438 115.480469 " clip-rule="evenodd"/></clipPath><linearGradient x1="-0.0000015028" gradientTransform="matrix(0, 14.517033, 14.517033, 0, 225.022489, 115.479157)" y1="0" x2="0.975704" gradientUnits="userSpaceOnUse" y2="0" id="c48a036780"><stop stop-opacity="1" stop-color="rgb(59.599304%, 39.99939%, 15.299988%)" offset="0"/><stop stop-opacity="1" stop-color="rgb(59.770203%, 40.136719%, 15.306091%)" offset="0.015625"/><stop stop-opacity="1" stop-color="rgb(60.112%, 40.411377%, 15.316772%)" offset="0.03125"/><stop stop-opacity="1" stop-color="rgb(60.452271%, 40.684509%, 15.328979%)" offset="0.046875"/><stop stop-opacity="1" stop-color="rgb(60.794067%, 40.959167%, 15.341187%)" offset="0.0625"/><stop stop-opacity="1" stop-color="rgb(61.135864%, 41.233826%, 15.353394%)" offset="0.078125"/><stop stop-opacity="1" stop-color="rgb(61.477661%, 41.508484%, 15.365601%)" offset="0.09375"/><stop stop-opacity="1" stop-color="rgb(61.819458%, 41.783142%, 15.377808%)" offset="0.109375"/><stop stop-opacity="1" stop-color="rgb(62.159729%, 42.0578%, 15.390015%)" offset="0.125"/><stop stop-opacity="1" stop-color="rgb(62.501526%, 42.330933%, 15.402222%)" offset="0.140625"/><stop stop-opacity="1" stop-color="rgb(62.843323%, 42.605591%, 15.414429%)" offset="0.15625"/><stop stop-opacity="1" stop-color="rgb(63.18512%, 42.880249%, 15.426636%)" offset="0.171875"/><stop stop-opacity="1" stop-color="rgb(63.526917%, 43.154907%, 15.438843%)" offset="0.1875"/><stop stop-opacity="1" stop-color="rgb(63.867188%, 43.429565%, 15.45105%)" offset="0.203125"/><stop stop-opacity="1" stop-color="rgb(64.208984%, 43.704224%, 15.463257%)" offset="0.21875"/><stop stop-opacity="1" stop-color="rgb(64.550781%, 43.978882%, 15.475464%)" offset="0.234375"/><stop stop-opacity="1" stop-color="rgb(64.892578%, 44.252014%, 15.487671%)" offset="0.25"/><stop stop-opacity="1" stop-color="rgb(65.234375%, 44.526672%, 15.499878%)" offset="0.265625"/><stop stop-opacity="1" stop-color="rgb(65.574646%, 44.801331%, 15.512085%)" offset="0.28125"/><stop stop-opacity="1" stop-color="rgb(65.916443%, 45.075989%, 15.524292%)" offset="0.296875"/><stop stop-opacity="1" stop-color="rgb(66.25824%, 45.350647%, 15.536499%)" offset="0.3125"/><stop stop-opacity="1" stop-color="rgb(66.600037%, 45.625305%, 15.548706%)" offset="0.328125"/><stop stop-opacity="1" stop-color="rgb(66.941833%, 45.898438%, 15.560913%)" offset="0.34375"/><stop stop-opacity="1" stop-color="rgb(67.282104%, 46.173096%, 15.57312%)" offset="0.359375"/><stop stop-opacity="1" stop-color="rgb(67.623901%, 46.447754%, 15.585327%)" offset="0.375"/><stop stop-opacity="1" stop-color="rgb(67.965698%, 46.722412%, 15.597534%)" offset="0.390625"/><stop stop-opacity="1" stop-color="rgb(68.307495%, 46.99707%, 15.609741%)" offset="0.40625"/><stop stop-opacity="1" stop-color="rgb(68.649292%, 47.271729%, 15.621948%)" offset="0.421875"/><stop stop-opacity="1" stop-color="rgb(68.989563%, 47.544861%, 15.634155%)" offset="0.4375"/><stop stop-opacity="1" stop-color="rgb(69.33136%, 47.819519%, 15.646362%)" offset="0.453125"/><stop stop-opacity="1" stop-color="rgb(69.673157%, 48.094177%, 15.658569%)" offset="0.46875"/><stop stop-opacity="1" stop-color="rgb(70.014954%, 48.368835%, 15.670776%)" offset="0.484375"/><stop stop-opacity="1" stop-color="rgb(70.35675%, 48.643494%, 15.682983%)" offset="0.5"/><stop stop-opacity="1" stop-color="rgb(70.697021%, 48.918152%, 15.69519%)" offset="0.515625"/><stop stop-opacity="1" stop-color="rgb(71.038818%, 49.19281%, 15.707397%)" offset="0.53125"/><stop stop-opacity="1" stop-color="rgb(71.380615%, 49.465942%, 15.719604%)" offset="0.546875"/><stop stop-opacity="1" stop-color="rgb(71.722412%, 49.740601%, 15.731812%)" offset="0.5625"/><stop stop-opacity="1" stop-color="rgb(72.064209%, 50.015259%, 15.744019%)" offset="0.578125"/><stop stop-opacity="1" stop-color="rgb(72.40448%, 50.289917%, 15.756226%)" offset="0.59375"/><stop stop-opacity="1" stop-color="rgb(72.746277%, 50.564575%, 15.768433%)" offset="0.609375"/><stop stop-opacity="1" stop-color="rgb(73.088074%, 50.839233%, 15.78064%)" offset="0.625"/><stop stop-opacity="1" stop-color="rgb(73.429871%, 51.112366%, 15.792847%)" offset="0.640625"/><stop stop-opacity="1" stop-color="rgb(73.771667%, 51.387024%, 15.805054%)" offset="0.65625"/><stop stop-opacity="1" stop-color="rgb(74.111938%, 51.661682%, 15.817261%)" offset="0.671875"/><stop stop-opacity="1" stop-color="rgb(74.453735%, 51.93634%, 15.829468%)" offset="0.6875"/><stop stop-opacity="1" stop-color="rgb(74.795532%, 52.210999%, 15.841675%)" offset="0.703125"/><stop stop-opacity="1" stop-color="rgb(75.137329%, 52.485657%, 15.853882%)" offset="0.71875"/><stop stop-opacity="1" stop-color="rgb(75.479126%, 52.758789%, 15.866089%)" offset="0.734375"/><stop stop-opacity="1" stop-color="rgb(75.820923%, 53.033447%, 15.878296%)" offset="0.75"/><stop stop-opacity="1" stop-color="rgb(76.161194%, 53.308105%, 15.890503%)" offset="0.765625"/><stop stop-opacity="1" stop-color="rgb(76.502991%, 53.582764%, 15.90271%)" offset="0.78125"/><stop stop-opacity="1" stop-color="rgb(76.844788%, 53.857422%, 15.914917%)" offset="0.796875"/><stop stop-opacity="1" stop-color="rgb(77.186584%, 54.13208%, 15.927124%)" offset="0.8125"/><stop stop-opacity="1" stop-color="rgb(77.528381%, 54.406738%, 15.939331%)" offset="0.828125"/><stop stop-opacity="1" stop-color="rgb(77.868652%, 54.679871%, 15.951538%)" offset="0.84375"/><stop stop-opacity="1" stop-color="rgb(78.210449%, 54.954529%, 15.963745%)" offset="0.859375"/><stop stop-opacity="1" stop-color="rgb(78.552246%, 55.229187%, 15.975952%)" offset="0.875"/><stop stop-opacity="1" stop-color="rgb(78.894043%, 55.503845%, 15.988159%)" offset="0.890625"/><stop stop-opacity="1" stop-color="rgb(79.23584%, 55.778503%, 16.000366%)" offset="0.90625"/><stop stop-opacity="1" stop-color="rgb(79.576111%, 56.053162%, 16.012573%)" offset="0.921875"/><stop stop-opacity="1" stop-color="rgb(79.917908%, 56.326294%, 16.02478%)" offset="0.9375"/><stop stop-opacity="1" stop-color="rgb(80.259705%, 56.600952%, 16.036987%)" offset="0.953125"/><stop stop-opacity="1" stop-color="rgb(80.601501%, 56.87561%, 16.049194%)" offset="0.96875"/><stop stop-opacity="1" stop-color="rgb(80.943298%, 57.150269%, 16.061401%)" offset="0.984375"/><stop stop-opacity="1" stop-color="rgb(81.283569%, 57.424927%, 16.073608%)" offset="1"/></linearGradient><clipPath id="d28e79b7fc"><path d="M 219 117 L 224.988281 117 L 224.988281 128 L 219 128 Z M 219 117 " clip-rule="nonzero"/></clipPath><clipPath id="957816ea70"><path d="M 229.621094 136.269531 L 234.613281 136.269531 L 234.613281 146.257812 L 229.621094 146.257812 Z M 229.621094 136.269531 " clip-rule="nonzero"/></clipPath><clipPath id="cd096ac074"><path d="M 229.621094 136.269531 L 234.613281 136.269531 L 234.613281 146.257812 L 229.621094 146.257812 Z M 229.621094 136.269531 " clip-rule="nonzero"/></clipPath><clipPath id="10cc0d1810"><path d="M 229.621094 136.507812 C 232.257812 136.507812 234.402344 138.648438 234.402344 141.289062 C 234.402344 143.925781 232.257812 146.066406 229.621094 146.066406 L 229.621094 145.894531 C 232.164062 145.894531 234.230469 143.832031 234.230469 141.289062 C 234.230469 138.742188 232.164062 136.679688 229.621094 136.679688 Z M 229.621094 136.507812 " clip-rule="evenodd"/></clipPath><linearGradient x1="-0.000000745109" gradientTransform="matrix(0, 9.798511, -9.798511, 0, 229.621149, 136.506987)" y1="0" x2="0.975705" gradientUnits="userSpaceOnUse" y2="0" id="2062ee47b6"><stop stop-opacity="1" stop-color="rgb(59.599304%, 39.99939%, 15.299988%)" offset="0"/><stop stop-opacity="1" stop-color="rgb(59.770203%, 40.136719%, 15.306091%)" offset="0.015625"/><stop stop-opacity="1" stop-color="rgb(60.112%, 40.411377%, 15.316772%)" offset="0.03125"/><stop stop-opacity="1" stop-color="rgb(60.452271%, 40.684509%, 15.328979%)" offset="0.046875"/><stop stop-opacity="1" stop-color="rgb(60.794067%, 40.959167%, 15.341187%)" offset="0.0625"/><stop stop-opacity="1" stop-color="rgb(61.135864%, 41.233826%, 15.353394%)" offset="0.078125"/><stop stop-opacity="1" stop-color="rgb(61.477661%, 41.508484%, 15.365601%)" offset="0.09375"/><stop stop-opacity="1" stop-color="rgb(61.819458%, 41.783142%, 15.377808%)" offset="0.109375"/><stop stop-opacity="1" stop-color="rgb(62.159729%, 42.0578%, 15.390015%)" offset="0.125"/><stop stop-opacity="1" stop-color="rgb(62.501526%, 42.330933%, 15.402222%)" offset="0.140625"/><stop stop-opacity="1" stop-color="rgb(62.843323%, 42.605591%, 15.414429%)" offset="0.15625"/><stop stop-opacity="1" stop-color="rgb(63.18512%, 42.880249%, 15.426636%)" offset="0.171875"/><stop stop-opacity="1" stop-color="rgb(63.526917%, 43.154907%, 15.438843%)" offset="0.1875"/><stop stop-opacity="1" stop-color="rgb(63.867188%, 43.429565%, 15.45105%)" offset="0.203125"/><stop stop-opacity="1" stop-color="rgb(64.208984%, 43.704224%, 15.463257%)" offset="0.21875"/><stop stop-opacity="1" stop-color="rgb(64.550781%, 43.978882%, 15.475464%)" offset="0.234375"/><stop stop-opacity="1" stop-color="rgb(64.892578%, 44.252014%, 15.487671%)" offset="0.25"/><stop stop-opacity="1" stop-color="rgb(65.234375%, 44.526672%, 15.499878%)" offset="0.265625"/><stop stop-opacity="1" stop-color="rgb(65.574646%, 44.801331%, 15.512085%)" offset="0.28125"/><stop stop-opacity="1" stop-color="rgb(65.916443%, 45.075989%, 15.524292%)" offset="0.296875"/><stop stop-opacity="1" stop-color="rgb(66.25824%, 45.350647%, 15.536499%)" offset="0.3125"/><stop stop-opacity="1" stop-color="rgb(66.600037%, 45.625305%, 15.548706%)" offset="0.328125"/><stop stop-opacity="1" stop-color="rgb(66.941833%, 45.898438%, 15.560913%)" offset="0.34375"/><stop stop-opacity="1" stop-color="rgb(67.282104%, 46.173096%, 15.57312%)" offset="0.359375"/><stop stop-opacity="1" stop-color="rgb(67.623901%, 46.447754%, 15.585327%)" offset="0.375"/><stop stop-opacity="1" stop-color="rgb(67.965698%, 46.722412%, 15.597534%)" offset="0.390625"/><stop stop-opacity="1" stop-color="rgb(68.307495%, 46.99707%, 15.609741%)" offset="0.40625"/><stop stop-opacity="1" stop-color="rgb(68.649292%, 47.271729%, 15.621948%)" offset="0.421875"/><stop stop-opacity="1" stop-color="rgb(68.989563%, 47.544861%, 15.634155%)" offset="0.4375"/><stop stop-opacity="1" stop-color="rgb(69.33136%, 47.819519%, 15.646362%)" offset="0.453125"/><stop stop-opacity="1" stop-color="rgb(69.673157%, 48.094177%, 15.658569%)" offset="0.46875"/><stop stop-opacity="1" stop-color="rgb(70.014954%, 48.368835%, 15.670776%)" offset="0.484375"/><stop stop-opacity="1" stop-color="rgb(70.35675%, 48.643494%, 15.682983%)" offset="0.5"/><stop stop-opacity="1" stop-color="rgb(70.697021%, 48.918152%, 15.69519%)" offset="0.515625"/><stop stop-opacity="1" stop-color="rgb(71.038818%, 49.19281%, 15.707397%)" offset="0.53125"/><stop stop-opacity="1" stop-color="rgb(71.380615%, 49.465942%, 15.719604%)" offset="0.546875"/><stop stop-opacity="1" stop-color="rgb(71.722412%, 49.740601%, 15.731812%)" offset="0.5625"/><stop stop-opacity="1" stop-color="rgb(72.064209%, 50.015259%, 15.744019%)" offset="0.578125"/><stop stop-opacity="1" stop-color="rgb(72.40448%, 50.289917%, 15.756226%)" offset="0.59375"/><stop stop-opacity="1" stop-color="rgb(72.746277%, 50.564575%, 15.768433%)" offset="0.609375"/><stop stop-opacity="1" stop-color="rgb(73.088074%, 50.839233%, 15.78064%)" offset="0.625"/><stop stop-opacity="1" stop-color="rgb(73.429871%, 51.112366%, 15.792847%)" offset="0.640625"/><stop stop-opacity="1" stop-color="rgb(73.771667%, 51.387024%, 15.805054%)" offset="0.65625"/><stop stop-opacity="1" stop-color="rgb(74.111938%, 51.661682%, 15.817261%)" offset="0.671875"/><stop stop-opacity="1" stop-color="rgb(74.453735%, 51.93634%, 15.829468%)" offset="0.6875"/><stop stop-opacity="1" stop-color="rgb(74.795532%, 52.210999%, 15.841675%)" offset="0.703125"/><stop stop-opacity="1" stop-color="rgb(75.137329%, 52.485657%, 15.853882%)" offset="0.71875"/><stop stop-opacity="1" stop-color="rgb(75.479126%, 52.758789%, 15.866089%)" offset="0.734375"/><stop stop-opacity="1" stop-color="rgb(75.820923%, 53.033447%, 15.878296%)" offset="0.75"/><stop stop-opacity="1" stop-color="rgb(76.161194%, 53.308105%, 15.890503%)" offset="0.765625"/><stop stop-opacity="1" stop-color="rgb(76.502991%, 53.582764%, 15.90271%)" offset="0.78125"/><stop stop-opacity="1" stop-color="rgb(76.844788%, 53.857422%, 15.914917%)" offset="0.796875"/><stop stop-opacity="1" stop-color="rgb(77.186584%, 54.13208%, 15.927124%)" offset="0.8125"/><stop stop-opacity="1" stop-color="rgb(77.528381%, 54.406738%, 15.939331%)" offset="0.828125"/><stop stop-opacity="1" stop-color="rgb(77.868652%, 54.679871%, 15.951538%)" offset="0.84375"/><stop stop-opacity="1" stop-color="rgb(78.210449%, 54.954529%, 15.963745%)" offset="0.859375"/><stop stop-opacity="1" stop-color="rgb(78.552246%, 55.229187%, 15.975952%)" offset="0.875"/><stop stop-opacity="1" stop-color="rgb(78.894043%, 55.503845%, 15.988159%)" offset="0.890625"/><stop stop-opacity="1" stop-color="rgb(79.23584%, 55.778503%, 16.000366%)" offset="0.90625"/><stop stop-opacity="1" stop-color="rgb(79.576111%, 56.053162%, 16.012573%)" offset="0.921875"/><stop stop-opacity="1" stop-color="rgb(79.917908%, 56.326294%, 16.02478%)" offset="0.9375"/><stop stop-opacity="1" stop-color="rgb(80.259705%, 56.600952%, 16.036987%)" offset="0.953125"/><stop stop-opacity="1" stop-color="rgb(80.601501%, 56.87561%, 16.049194%)" offset="0.96875"/><stop stop-opacity="1" stop-color="rgb(80.943298%, 57.150269%, 16.061401%)" offset="0.984375"/><stop stop-opacity="1" stop-color="rgb(81.283569%, 57.424927%, 16.073608%)" offset="1"/></linearGradient><clipPath id="f156cb338e"><path d="M 229.621094 137 L 234 137 L 234 145 L 229.621094 145 Z M 229.621094 137 " clip-rule="nonzero"/></clipPath><clipPath id="092151ccdd"><path d="M 224.867188 136.269531 L 229.839844 136.269531 L 229.839844 146.257812 L 224.867188 146.257812 Z M 224.867188 136.269531 " clip-rule="nonzero"/></clipPath><clipPath id="1d61f5d6a4"><path d="M 225 136.269531 L 229.839844 136.269531 L 229.839844 146.257812 L 225 146.257812 Z M 225 136.269531 " clip-rule="nonzero"/></clipPath><clipPath id="4c7b0d60b8"><path d="M 229.863281 136.507812 C 227.222656 136.507812 225.082031 138.648438 225.082031 141.289062 C 225.082031 143.925781 227.222656 146.066406 229.863281 146.066406 L 229.863281 145.894531 C 227.320312 145.894531 225.253906 143.832031 225.253906 141.289062 C 225.253906 138.742188 227.320312 136.679688 229.863281 136.679688 Z M 229.863281 136.507812 " clip-rule="evenodd"/></clipPath><linearGradient x1="-0.000000756294" gradientTransform="matrix(0, 9.79851, 9.79851, 0, 229.862209, 136.506987)" y1="0" x2="0.975705" gradientUnits="userSpaceOnUse" y2="0" id="b5785560db"><stop stop-opacity="1" stop-color="rgb(59.599304%, 39.99939%, 15.299988%)" offset="0"/><stop stop-opacity="1" stop-color="rgb(59.770203%, 40.136719%, 15.306091%)" offset="0.015625"/><stop stop-opacity="1" stop-color="rgb(60.112%, 40.411377%, 15.316772%)" offset="0.03125"/><stop stop-opacity="1" stop-color="rgb(60.452271%, 40.684509%, 15.328979%)" offset="0.046875"/><stop stop-opacity="1" stop-color="rgb(60.794067%, 40.959167%, 15.341187%)" offset="0.0625"/><stop stop-opacity="1" stop-color="rgb(61.135864%, 41.233826%, 15.353394%)" offset="0.078125"/><stop stop-opacity="1" stop-color="rgb(61.477661%, 41.508484%, 15.365601%)" offset="0.09375"/><stop stop-opacity="1" stop-color="rgb(61.819458%, 41.783142%, 15.377808%)" offset="0.109375"/><stop stop-opacity="1" stop-color="rgb(62.159729%, 42.0578%, 15.390015%)" offset="0.125"/><stop stop-opacity="1" stop-color="rgb(62.501526%, 42.330933%, 15.402222%)" offset="0.140625"/><stop stop-opacity="1" stop-color="rgb(62.843323%, 42.605591%, 15.414429%)" offset="0.15625"/><stop stop-opacity="1" stop-color="rgb(63.18512%, 42.880249%, 15.426636%)" offset="0.171875"/><stop stop-opacity="1" stop-color="rgb(63.526917%, 43.154907%, 15.438843%)" offset="0.1875"/><stop stop-opacity="1" stop-color="rgb(63.867188%, 43.429565%, 15.45105%)" offset="0.203125"/><stop stop-opacity="1" stop-color="rgb(64.208984%, 43.704224%, 15.463257%)" offset="0.21875"/><stop stop-opacity="1" stop-color="rgb(64.550781%, 43.978882%, 15.475464%)" offset="0.234375"/><stop stop-opacity="1" stop-color="rgb(64.892578%, 44.252014%, 15.487671%)" offset="0.25"/><stop stop-opacity="1" stop-color="rgb(65.234375%, 44.526672%, 15.499878%)" offset="0.265625"/><stop stop-opacity="1" stop-color="rgb(65.574646%, 44.801331%, 15.512085%)" offset="0.28125"/><stop stop-opacity="1" stop-color="rgb(65.916443%, 45.075989%, 15.524292%)" offset="0.296875"/><stop stop-opacity="1" stop-color="rgb(66.25824%, 45.350647%, 15.536499%)" offset="0.3125"/><stop stop-opacity="1" stop-color="rgb(66.600037%, 45.625305%, 15.548706%)" offset="0.328125"/><stop stop-opacity="1" stop-color="rgb(66.941833%, 45.898438%, 15.560913%)" offset="0.34375"/><stop stop-opacity="1" stop-color="rgb(67.282104%, 46.173096%, 15.57312%)" offset="0.359375"/><stop stop-opacity="1" stop-color="rgb(67.623901%, 46.447754%, 15.585327%)" offset="0.375"/><stop stop-opacity="1" stop-color="rgb(67.965698%, 46.722412%, 15.597534%)" offset="0.390625"/><stop stop-opacity="1" stop-color="rgb(68.307495%, 46.99707%, 15.609741%)" offset="0.40625"/><stop stop-opacity="1" stop-color="rgb(68.649292%, 47.271729%, 15.621948%)" offset="0.421875"/><stop stop-opacity="1" stop-color="rgb(68.989563%, 47.544861%, 15.634155%)" offset="0.4375"/><stop stop-opacity="1" stop-color="rgb(69.33136%, 47.819519%, 15.646362%)" offset="0.453125"/><stop stop-opacity="1" stop-color="rgb(69.673157%, 48.094177%, 15.658569%)" offset="0.46875"/><stop stop-opacity="1" stop-color="rgb(70.014954%, 48.368835%, 15.670776%)" offset="0.484375"/><stop stop-opacity="1" stop-color="rgb(70.35675%, 48.643494%, 15.682983%)" offset="0.5"/><stop stop-opacity="1" stop-color="rgb(70.697021%, 48.918152%, 15.69519%)" offset="0.515625"/><stop stop-opacity="1" stop-color="rgb(71.038818%, 49.19281%, 15.707397%)" offset="0.53125"/><stop stop-opacity="1" stop-color="rgb(71.380615%, 49.465942%, 15.719604%)" offset="0.546875"/><stop stop-opacity="1" stop-color="rgb(71.722412%, 49.740601%, 15.731812%)" offset="0.5625"/><stop stop-opacity="1" stop-color="rgb(72.064209%, 50.015259%, 15.744019%)" offset="0.578125"/><stop stop-opacity="1" stop-color="rgb(72.40448%, 50.289917%, 15.756226%)" offset="0.59375"/><stop stop-opacity="1" stop-color="rgb(72.746277%, 50.564575%, 15.768433%)" offset="0.609375"/><stop stop-opacity="1" stop-color="rgb(73.088074%, 50.839233%, 15.78064%)" offset="0.625"/><stop stop-opacity="1" stop-color="rgb(73.429871%, 51.112366%, 15.792847%)" offset="0.640625"/><stop stop-opacity="1" stop-color="rgb(73.771667%, 51.387024%, 15.805054%)" offset="0.65625"/><stop stop-opacity="1" stop-color="rgb(74.111938%, 51.661682%, 15.817261%)" offset="0.671875"/><stop stop-opacity="1" stop-color="rgb(74.453735%, 51.93634%, 15.829468%)" offset="0.6875"/><stop stop-opacity="1" stop-color="rgb(74.795532%, 52.210999%, 15.841675%)" offset="0.703125"/><stop stop-opacity="1" stop-color="rgb(75.137329%, 52.485657%, 15.853882%)" offset="0.71875"/><stop stop-opacity="1" stop-color="rgb(75.479126%, 52.758789%, 15.866089%)" offset="0.734375"/><stop stop-opacity="1" stop-color="rgb(75.820923%, 53.033447%, 15.878296%)" offset="0.75"/><stop stop-opacity="1" stop-color="rgb(76.161194%, 53.308105%, 15.890503%)" offset="0.765625"/><stop stop-opacity="1" stop-color="rgb(76.502991%, 53.582764%, 15.90271%)" offset="0.78125"/><stop stop-opacity="1" stop-color="rgb(76.844788%, 53.857422%, 15.914917%)" offset="0.796875"/><stop stop-opacity="1" stop-color="rgb(77.186584%, 54.13208%, 15.927124%)" offset="0.8125"/><stop stop-opacity="1" stop-color="rgb(77.528381%, 54.406738%, 15.939331%)" offset="0.828125"/><stop stop-opacity="1" stop-color="rgb(77.868652%, 54.679871%, 15.951538%)" offset="0.84375"/><stop stop-opacity="1" stop-color="rgb(78.210449%, 54.954529%, 15.963745%)" offset="0.859375"/><stop stop-opacity="1" stop-color="rgb(78.552246%, 55.229187%, 15.975952%)" offset="0.875"/><stop stop-opacity="1" stop-color="rgb(78.894043%, 55.503845%, 15.988159%)" offset="0.890625"/><stop stop-opacity="1" stop-color="rgb(79.23584%, 55.778503%, 16.000366%)" offset="0.90625"/><stop stop-opacity="1" stop-color="rgb(79.576111%, 56.053162%, 16.012573%)" offset="0.921875"/><stop stop-opacity="1" stop-color="rgb(79.917908%, 56.326294%, 16.02478%)" offset="0.9375"/><stop stop-opacity="1" stop-color="rgb(80.259705%, 56.600952%, 16.036987%)" offset="0.953125"/><stop stop-opacity="1" stop-color="rgb(80.601501%, 56.87561%, 16.049194%)" offset="0.96875"/><stop stop-opacity="1" stop-color="rgb(80.943298%, 57.150269%, 16.061401%)" offset="0.984375"/><stop stop-opacity="1" stop-color="rgb(81.283569%, 57.424927%, 16.073608%)" offset="1"/></linearGradient><clipPath id="bc97e57ab5"><path d="M 226 137 L 229.839844 137 L 229.839844 145 L 226 145 Z M 226 137 " clip-rule="nonzero"/></clipPath></defs><g clip-path="url(#091b04fb02)"><path fill="#00bf63" d="M 244.144531 102.917969 C 258.414062 112.144531 262.5 131.355469 253.273438 145.621094 L 210.664062 211.328125 C 201.4375 225.597656 182.226562 229.683594 167.992188 220.457031 C 164.53125 218.21875 161.699219 215.417969 159.492188 212.21875 L 144.003906 212.21875 C 141.332031 212.21875 139.160156 210.042969 139.160156 207.375 C 139.160156 204.707031 141.332031 202.53125 144.003906 202.53125 L 172.636719 202.53125 C 172.96875 202.53125 173.265625 202.566406 173.5625 202.628906 C 176.230469 202.628906 178.40625 200.457031 178.40625 197.785156 C 178.40625 195.117188 176.230469 192.941406 173.5625 192.941406 L 117.34375 192.941406 C 114.707031 192.941406 112.5 190.769531 112.5 188.097656 C 112.5 185.429688 114.675781 183.253906 117.34375 183.253906 L 209.875 183.253906 C 212.542969 183.253906 214.71875 181.078125 214.71875 178.410156 C 214.71875 175.742188 212.542969 173.566406 209.875 173.566406 L 164.960938 173.566406 C 162.292969 173.566406 160.117188 171.390625 160.117188 168.722656 C 160.117188 166.054688 162.292969 163.878906 164.960938 163.878906 L 195.210938 163.878906 C 197.878906 163.878906 200.054688 161.703125 200.054688 159.035156 C 200.054688 156.363281 197.878906 154.191406 195.210938 154.191406 L 165.785156 154.191406 C 163.113281 154.191406 160.941406 152.015625 160.941406 149.347656 C 160.941406 146.675781 163.113281 144.503906 165.785156 144.503906 L 180.449219 144.503906 L 201.4375 112.078125 C 210.664062 97.777344 229.878906 93.6875 244.144531 102.917969 Z M 137.050781 163.84375 C 134.378906 163.84375 132.207031 166.019531 132.207031 168.6875 C 132.207031 171.359375 134.378906 173.535156 137.050781 173.535156 L 148.1875 173.535156 C 150.824219 173.535156 153.03125 171.324219 153.03125 168.6875 C 153.03125 166.054688 150.855469 163.84375 148.1875 163.84375 Z M 194.058594 142.292969 C 201.472656 141.140625 209.117188 142.691406 215.542969 146.875 C 222 151.027344 226.546875 157.386719 228.527344 164.636719 L 244.574219 139.988281 C 250.703125 130.53125 247.96875 117.746094 238.476562 111.582031 C 229.019531 105.453125 216.234375 108.1875 210.105469 117.644531 Z M 194.058594 142.292969 " fill-opacity="1" fill-rule="evenodd"/></g><g fill="#00bf63" fill-opacity="1"><g transform="translate(61.403361, 259.970448)"><g><path d="M 9.90625 0 L 3.015625 0 L 3.015625 -28.359375 L 15.765625 -28.359375 C 19.171875 -28.359375 21.800781 -27.59375 23.65625 -26.0625 C 25.507812 -24.53125 26.4375 -22.21875 26.4375 -19.125 C 26.4375 -15.976562 25.492188 -13.554688 23.609375 -11.859375 C 21.734375 -10.160156 19.117188 -9.3125 15.765625 -9.3125 L 9.90625 -9.3125 Z M 14.921875 -14.625 C 16.304688 -14.625 17.332031 -14.984375 18 -15.703125 C 18.664062 -16.429688 19 -17.421875 19 -18.671875 C 19 -21.554688 17.640625 -23 14.921875 -23 L 9.90625 -23 L 9.90625 -14.625 Z M 14.921875 -14.625 "/></g></g></g><g fill="#00bf63" fill-opacity="1"><g transform="translate(89.625943, 259.970448)"><g><path d="M 15.265625 -22.109375 C 17.753906 -22.109375 19.691406 -21.484375 21.078125 -20.234375 C 22.472656 -18.984375 23.171875 -16.941406 23.171875 -14.109375 L 23.171875 0 L 16.84375 0 L 16.84375 -12.796875 C 16.84375 -15.515625 15.476562 -16.875 12.75 -16.875 C 12.101562 -16.875 11.4375 -16.773438 10.75 -16.578125 C 10.070312 -16.378906 9.550781 -16.140625 9.1875 -15.859375 L 9.09375 0 L 2.8125 0 L 2.8125 -30.015625 L 9.1875 -30.015625 L 9.1875 -20.53125 C 11.132812 -21.582031 13.160156 -22.109375 15.265625 -22.109375 Z M 15.265625 -22.109375 "/></g></g></g><g fill="#00bf63" fill-opacity="1"><g transform="translate(115.595824, 259.970448)"><g><path d="M 12.203125 -22.15625 C 14.554688 -22.15625 16.695312 -21.609375 18.625 -20.515625 C 20.550781 -19.421875 21.515625 -17.457031 21.515625 -14.625 L 21.46875 -4.46875 C 21.4375 -2.675781 20.539062 -1.375 18.78125 -0.5625 C 17.03125 0.238281 14.46875 0.640625 11.09375 0.640625 C 4.800781 0.640625 1.65625 -1.8125 1.65625 -6.71875 C 1.65625 -8.789062 2.300781 -10.40625 3.59375 -11.5625 C 4.882812 -12.726562 6.804688 -13.3125 9.359375 -13.3125 C 10.398438 -13.3125 11.445312 -13.175781 12.5 -12.90625 C 13.550781 -12.632812 14.457031 -12.285156 15.21875 -11.859375 L 15.21875 -13.21875 C 15.21875 -15.6875 13.628906 -16.921875 10.453125 -16.921875 C 9.234375 -16.921875 7.976562 -16.703125 6.6875 -16.265625 C 5.40625 -15.828125 4.378906 -15.296875 3.609375 -14.671875 L 3.609375 -20.28125 C 4.378906 -20.789062 5.550781 -21.226562 7.125 -21.59375 C 8.695312 -21.96875 10.390625 -22.15625 12.203125 -22.15625 Z M 11.3125 -3.828125 C 12.78125 -3.828125 13.796875 -3.925781 14.359375 -4.125 C 14.929688 -4.320312 15.21875 -4.71875 15.21875 -5.3125 L 15.21875 -8.625 C 14.226562 -8.96875 13.140625 -9.140625 11.953125 -9.140625 C 10.554688 -9.140625 9.539062 -8.929688 8.90625 -8.515625 C 8.269531 -8.109375 7.953125 -7.46875 7.953125 -6.59375 C 7.953125 -5.769531 8.285156 -5.101562 8.953125 -4.59375 C 9.617188 -4.082031 10.40625 -3.828125 11.3125 -3.828125 Z M 11.3125 -3.828125 "/></g></g></g><g fill="#00bf63" fill-opacity="1"><g transform="translate(139.908052, 259.970448)"><g><path d="M 2.8125 -19.265625 C 3.226562 -19.628906 3.96875 -20.035156 5.03125 -20.484375 C 6.09375 -20.941406 7.285156 -21.332031 8.609375 -21.65625 C 9.929688 -21.988281 11.203125 -22.15625 12.421875 -22.15625 C 14.765625 -22.15625 16.390625 -21.800781 17.296875 -21.09375 L 17.296875 -16.453125 C 16.171875 -16.710938 14.546875 -16.84375 12.421875 -16.84375 C 11.085938 -16.84375 9.992188 -16.769531 9.140625 -16.625 L 9.140625 0 L 2.8125 0 Z M 2.8125 -19.265625 "/></g></g></g><g fill="#00bf63" fill-opacity="1"><g transform="translate(158.099716, 259.970448)"><g><path d="M 27.296875 -22.109375 C 30.296875 -22.109375 32.519531 -21.519531 33.96875 -20.34375 C 35.414062 -19.164062 36.140625 -17.203125 36.140625 -14.453125 L 36.140625 0 L 29.796875 0 L 29.796875 -13.1875 C 29.796875 -15.644531 28.410156 -16.875 25.640625 -16.875 C 24.472656 -16.875 23.492188 -16.609375 22.703125 -16.078125 C 22.753906 -15.390625 22.78125 -14.847656 22.78125 -14.453125 L 22.78125 0 L 16.453125 0 L 16.453125 -13.1875 C 16.453125 -15.644531 15.0625 -16.875 12.28125 -16.875 C 11.15625 -16.875 10.109375 -16.632812 9.140625 -16.15625 L 9.140625 0 L 2.8125 0 L 2.8125 -19.6875 C 3.914062 -20.28125 5.597656 -20.832031 7.859375 -21.34375 C 10.128906 -21.851562 12.15625 -22.109375 13.9375 -22.109375 C 16.800781 -22.109375 18.914062 -21.597656 20.28125 -20.578125 C 21.382812 -21.054688 22.550781 -21.429688 23.78125 -21.703125 C 25.019531 -21.972656 26.191406 -22.109375 27.296875 -22.109375 Z M 27.296875 -22.109375 "/></g></g></g><g fill="#00bf63" fill-opacity="1"><g transform="translate(197.033281, 259.970448)"><g><path d="M 12.203125 -22.15625 C 14.554688 -22.15625 16.695312 -21.609375 18.625 -20.515625 C 20.550781 -19.421875 21.515625 -17.457031 21.515625 -14.625 L 21.46875 -4.46875 C 21.4375 -2.675781 20.539062 -1.375 18.78125 -0.5625 C 17.03125 0.238281 14.46875 0.640625 11.09375 0.640625 C 4.800781 0.640625 1.65625 -1.8125 1.65625 -6.71875 C 1.65625 -8.789062 2.300781 -10.40625 3.59375 -11.5625 C 4.882812 -12.726562 6.804688 -13.3125 9.359375 -13.3125 C 10.398438 -13.3125 11.445312 -13.175781 12.5 -12.90625 C 13.550781 -12.632812 14.457031 -12.285156 15.21875 -11.859375 L 15.21875 -13.21875 C 15.21875 -15.6875 13.628906 -16.921875 10.453125 -16.921875 C 9.234375 -16.921875 7.976562 -16.703125 6.6875 -16.265625 C 5.40625 -15.828125 4.378906 -15.296875 3.609375 -14.671875 L 3.609375 -20.28125 C 4.378906 -20.789062 5.550781 -21.226562 7.125 -21.59375 C 8.695312 -21.96875 10.390625 -22.15625 12.203125 -22.15625 Z M 11.3125 -3.828125 C 12.78125 -3.828125 13.796875 -3.925781 14.359375 -4.125 C 14.929688 -4.320312 15.21875 -4.71875 15.21875 -5.3125 L 15.21875 -8.625 C 14.226562 -8.96875 13.140625 -9.140625 11.953125 -9.140625 C 10.554688 -9.140625 9.539062 -8.929688 8.90625 -8.515625 C 8.269531 -8.109375 7.953125 -7.46875 7.953125 -6.59375 C 7.953125 -5.769531 8.285156 -5.101562 8.953125 -4.59375 C 9.617188 -4.082031 10.40625 -3.828125 11.3125 -3.828125 Z M 11.3125 -3.828125 "/></g></g></g><g fill="#00bf63" fill-opacity="1"><g transform="translate(221.345509, 259.970448)"><g><path d="M 41.875 -28.359375 L 33.921875 0 L 27.125 0 L 21.46875 -18.40625 L 15.8125 0 L 9.015625 0 L 1.0625 -28.359375 L 8.59375 -28.359375 L 13.046875 -8.546875 L 18.796875 -28.359375 L 24.109375 -28.359375 L 29.890625 -8.5 L 34.359375 -28.359375 Z M 41.875 -28.359375 "/></g></g></g><g fill="#00bf63" fill-opacity="1"><g transform="translate(264.274434, 259.970448)"><g><path d="M 2.8125 -29.328125 L 9.359375 -29.328125 L 9.359375 -24.453125 L 2.8125 -24.453125 Z M 2.9375 -21.21875 L 9.265625 -21.21875 L 9.3125 0 L 2.9375 0 Z M 2.9375 -21.21875 "/></g></g></g><g fill="#00bf63" fill-opacity="1"><g transform="translate(276.430554, 259.970448)"><g><path d="M 15.859375 0 L 9.140625 -8.890625 L 9.09375 0 L 2.8125 0 L 2.8125 -29.640625 L 9.1875 -29.640625 L 9.140625 -13.5625 L 15.640625 -21.515625 L 23.34375 -21.515625 L 14.453125 -12.15625 L 23.890625 0 Z M 15.859375 0 "/></g></g></g><g fill="#00bf63" fill-opacity="1"><g transform="translate(301.422847, 259.970448)"><g><path d="M 2.8125 -29.328125 L 9.359375 -29.328125 L 9.359375 -24.453125 L 2.8125 -24.453125 Z M 2.9375 -21.21875 L 9.265625 -21.21875 L 9.3125 0 L 2.9375 0 Z M 2.9375 -21.21875 "/></g></g></g><g clip-path="url(#088c958d2e)"><path fill="#00bf63" d="M 224.664062 119.691406 L 224.664062 115.125 C 228.769531 115.125 232.101562 118.457031 232.101562 122.5625 C 232.101562 126.664062 228.769531 129.996094 224.664062 129.996094 L 224.664062 125.429688 C 226.25 125.429688 227.535156 124.144531 227.535156 122.5625 C 227.535156 120.976562 226.25 119.691406 224.664062 119.691406 Z M 224.664062 119.691406 " fill-opacity="1" fill-rule="evenodd"/></g><g clip-path="url(#1c883ce0df)"><g clip-path="url(#6a7d36e5cb)"><path fill="url(#d9c70bf979)" d="M 231.746094 115.480469 L 224.664062 115.480469 L 224.664062 129.644531 L 231.746094 129.644531 Z M 231.746094 115.480469 " fill-rule="nonzero"/></g></g><g clip-path="url(#e073f91bda)"><path fill="#00bf63" d="M 224.664062 119.691406 L 224.664062 117.246094 C 227.597656 117.246094 229.980469 119.628906 229.980469 122.5625 C 229.980469 125.492188 227.597656 127.875 224.664062 127.875 L 224.664062 125.429688 C 226.25 125.429688 227.535156 124.144531 227.535156 122.5625 C 227.535156 120.976562 226.25 119.691406 224.664062 119.691406 Z M 224.664062 119.691406 " fill-opacity="1" fill-rule="evenodd"/></g><g clip-path="url(#2963794654)"><path fill="#00bf63" d="M 225.023438 119.691406 L 225.023438 115.125 C 220.917969 115.125 217.585938 118.457031 217.585938 122.5625 C 217.585938 126.664062 220.917969 129.996094 225.023438 129.996094 L 225.023438 125.429688 C 223.441406 125.429688 222.15625 124.144531 222.15625 122.5625 C 222.15625 120.976562 223.441406 119.691406 225.023438 119.691406 Z M 225.023438 119.691406 " fill-opacity="1" fill-rule="evenodd"/></g><g clip-path="url(#10620a9640)"><g clip-path="url(#f8e4c476e4)"><path fill="url(#c48a036780)" d="M 217.941406 115.480469 L 224.988281 115.480469 L 224.988281 129.644531 L 217.941406 129.644531 Z M 217.941406 115.480469 " fill-rule="nonzero"/></g></g><g clip-path="url(#d28e79b7fc)"><path fill="#00bf63" d="M 225.023438 119.691406 L 225.023438 117.246094 C 222.089844 117.246094 219.710938 119.628906 219.710938 122.5625 C 219.710938 125.492188 222.089844 127.875 225.023438 127.875 L 225.023438 125.429688 C 223.441406 125.429688 222.15625 124.144531 222.15625 122.5625 C 222.15625 120.976562 223.441406 119.691406 225.023438 119.691406 Z M 225.023438 119.691406 " fill-opacity="1" fill-rule="evenodd"/></g><g clip-path="url(#957816ea70)"><path fill="#00bf63" d="M 229.621094 139.351562 L 229.621094 136.269531 C 232.390625 136.269531 234.640625 138.515625 234.640625 141.289062 C 234.640625 144.058594 232.390625 146.304688 229.621094 146.304688 L 229.621094 143.222656 C 230.691406 143.222656 231.558594 142.355469 231.558594 141.289062 C 231.558594 140.21875 230.691406 139.351562 229.621094 139.351562 Z M 229.621094 139.351562 " fill-opacity="1" fill-rule="evenodd"/></g><g clip-path="url(#cd096ac074)"><g clip-path="url(#10cc0d1810)"><path fill="url(#2062ee47b6)" d="M 234.402344 136.507812 L 229.621094 136.507812 L 229.621094 146.066406 L 234.402344 146.066406 Z M 234.402344 136.507812 " fill-rule="nonzero"/></g></g><g clip-path="url(#f156cb338e)"><path fill="#00bf63" d="M 229.621094 139.351562 L 229.621094 137.699219 C 231.601562 137.699219 233.207031 139.308594 233.207031 141.289062 C 233.207031 143.265625 231.601562 144.875 229.621094 144.875 L 229.621094 143.222656 C 230.691406 143.222656 231.558594 142.355469 231.558594 141.289062 C 231.558594 140.21875 230.691406 139.351562 229.621094 139.351562 Z M 229.621094 139.351562 " fill-opacity="1" fill-rule="evenodd"/></g><g clip-path="url(#092151ccdd)"><path fill="#00bf63" d="M 229.863281 139.351562 L 229.863281 136.269531 C 227.09375 136.269531 224.84375 138.515625 224.84375 141.289062 C 224.84375 144.058594 227.09375 146.304688 229.863281 146.304688 L 229.863281 143.222656 C 228.792969 143.222656 227.925781 142.355469 227.925781 141.289062 C 227.925781 140.21875 228.792969 139.351562 229.863281 139.351562 Z M 229.863281 139.351562 " fill-opacity="1" fill-rule="evenodd"/></g><g clip-path="url(#1d61f5d6a4)"><g clip-path="url(#4c7b0d60b8)"><path fill="url(#b5785560db)" d="M 225.082031 136.507812 L 229.839844 136.507812 L 229.839844 146.066406 L 225.082031 146.066406 Z M 225.082031 136.507812 " fill-rule="nonzero"/></g></g><g clip-path="url(#bc97e57ab5)"><path fill="#00bf63" d="M 229.863281 139.351562 L 229.863281 137.699219 C 227.882812 137.699219 226.277344 139.308594 226.277344 141.289062 C 226.277344 143.265625 227.882812 144.875 229.863281 144.875 L 229.863281 143.222656 C 228.792969 143.222656 227.925781 142.355469 227.925781 141.289062 C 227.925781 140.21875 228.792969 139.351562 229.863281 139.351562 Z M 229.863281 139.351562 " fill-opacity="1" fill-rule="evenodd"/></g></svg>